# Blender 5.1.0
# www.blender.org
mtllib checkpoint.mtl
v -1.000000 -0.090876 1.000000
v -1.000000 0.210946 1.000000
v -1.000000 0.210946 -1.000000
v -1.000000 -0.090876 -1.000000
v 1.000000 0.210946 -1.000000
v 1.000000 -0.090876 -1.000000
v 1.000000 0.210946 1.000000
v 1.000000 -0.090876 1.000000
v -0.747443 0.210946 0.747443
v -0.747443 0.210946 -0.747443
v -1.000000 0.210946 -1.000000
v -1.000000 0.210946 1.000000
v 0.747443 0.210946 -0.747443
v 1.000000 0.210946 -1.000000
v 0.747443 0.210946 0.747443
v 1.000000 0.210946 1.000000
v -1.000000 3.592803 1.000000
v -1.000000 3.894625 1.000000
v -1.000000 3.894625 -1.000000
v -1.000000 3.592803 -1.000000
v 1.000000 3.894625 -1.000000
v 1.000000 3.592803 -1.000000
v 1.000000 3.894625 1.000000
v 1.000000 3.592803 1.000000
v -0.747443 3.894625 0.747443
v -0.747443 3.894625 -0.747443
v -1.000000 3.894625 -1.000000
v -1.000000 3.894625 1.000000
v 0.747443 3.894625 -0.747443
v 1.000000 3.894625 -1.000000
v 0.747443 3.894625 0.747443
v 1.000000 3.894625 1.000000
v 0.000000 0.071314 -0.689535
v 0.000000 3.535616 -0.689535
v 0.372791 3.535616 -0.580074
v 0.372791 0.071314 -0.580074
v 0.627223 3.535616 -0.286443
v 0.627223 0.071314 -0.286443
v 0.682517 3.535616 0.098131
v 0.682517 0.071314 0.098131
v 0.521116 3.535616 0.451550
v 0.521116 0.071314 0.451550
v 0.194265 3.535616 0.661604
v 0.194265 0.071314 0.661604
v -0.194265 3.535616 0.661604
v -0.194265 0.071314 0.661604
v -0.521116 3.535616 0.451550
v -0.521116 0.071314 0.451550
v -0.682517 3.535616 0.098131
v -0.682517 0.071314 0.098131
v -0.627223 3.535616 -0.286443
v -0.627223 0.071314 -0.286443
v -0.372791 3.535616 -0.580074
v -0.372791 0.071314 -0.580074
vt 0.375000 0.000000
vt 0.625000 0.000000
vt 0.625000 0.250000
vt 0.375000 0.250000
vt 0.625000 0.500000
vt 0.375000 0.500000
vt 0.625000 0.750000
vt 0.375000 0.750000
vt 0.625000 1.000000
vt 0.375000 1.000000
vt 0.125000 0.500000
vt 0.125000 0.750000
vt 0.843431 0.718430
vt 0.843430 0.531570
vt 0.875000 0.500000
vt 0.875000 0.750000
vt 0.656570 0.531570
vt 0.656570 0.718430
vt 0.375000 0.000000
vt 0.625000 0.000000
vt 0.625000 0.250000
vt 0.375000 0.250000
vt 0.625000 0.500000
vt 0.375000 0.500000
vt 0.625000 0.750000
vt 0.375000 0.750000
vt 0.625000 1.000000
vt 0.375000 1.000000
vt 0.125000 0.500000
vt 0.125000 0.750000
vt 0.843431 0.718430
vt 0.843430 0.531570
vt 0.875000 0.500000
vt 0.875000 0.750000
vt 0.656570 0.531570
vt 0.656570 0.718430
vt 1.000000 0.500000
vt 1.000000 1.000000
vt 0.909091 1.000000
vt 0.909091 0.500000
vt 0.818182 1.000000
vt 0.818182 0.500000
vt 0.727273 1.000000
vt 0.727273 0.500000
vt 0.636364 1.000000
vt 0.636364 0.500000
vt 0.545454 1.000000
vt 0.545454 0.500000
vt 0.454545 1.000000
vt 0.454545 0.500000
vt 0.363636 1.000000
vt 0.363636 0.500000
vt 0.272727 1.000000
vt 0.272727 0.500000
vt 0.181818 1.000000
vt 0.181818 0.500000
vt 0.379754 0.451901
vt 0.250000 0.490000
vt 0.120246 0.451901
vt 0.031688 0.349700
vt 0.012443 0.215844
vt 0.068620 0.092833
vt 0.182384 0.019722
vt 0.317616 0.019722
vt 0.431380 0.092833
vt 0.487557 0.215844
vt 0.468312 0.349700
vt 0.090909 1.000000
vt 0.090909 0.500000
vt -0.000000 1.000000
vt -0.000000 0.500000
vt 0.750000 0.490000
vt 0.879754 0.451901
vt 0.968312 0.349700
vt 0.987557 0.215844
vt 0.931380 0.092833
vt 0.817616 0.019722
vt 0.682384 0.019722
vt 0.568620 0.092833
vt 0.512443 0.215844
vt 0.531688 0.349700
vt 0.620246 0.451901
vn -1.0000 -0.0000 -0.0000
vn -0.0000 -0.0000 -1.0000
vn 1.0000 -0.0000 -0.0000
vn -0.0000 -0.0000 1.0000
vn -0.0000 -1.0000 -0.0000
vn -0.0000 1.0000 -0.0000
vn -1.0000 -0.0000 -0.0000
vn -0.0000 -0.0000 -1.0000
vn 1.0000 -0.0000 -0.0000
vn -0.0000 -0.0000 1.0000
vn -0.0000 -1.0000 -0.0000
vn -0.0000 1.0000 -0.0000
vn 0.2817 -0.0000 -0.9595
vn 0.7557 -0.0000 -0.6549
vn 0.9898 -0.0000 -0.1423
vn 0.9096 -0.0000 0.4154
vn 0.5406 -0.0000 0.8413
vn -0.0000 -0.0000 1.0000
vn -0.5406 -0.0000 0.8413
vn -0.9096 -0.0000 0.4154
vn -0.9898 -0.0000 -0.1423
vn -0.0000 1.0000 -0.0000
vn -0.7557 -0.0000 -0.6549
vn -0.2817 -0.0000 -0.9595
vn -0.0000 -1.0000 -0.0000
o Cube.001
s 0
f 1/1/1 2/2/1 3/3/1 4/4/1
f 4/4/2 3/3/2 5/5/2 6/6/2
f 6/6/3 5/5/3 7/7/3 8/8/3
f 8/8/4 7/7/4 2/9/4 1/10/4
f 4/11/5 6/6/5 8/8/5 1/12/5
f 9/13/6 10/14/6 11/15/6 12/16/6
f 10/14/6 13/17/6 14/5/6 11/15/6
f 13/17/6 15/18/6 16/7/6 14/5/6
f 15/18/6 9/13/6 12/16/6 16/7/6
f 9/13/6 15/18/6 13/17/6 10/14/6
o Cube.002
s 0
f 17/19/7 18/20/7 19/21/7 20/22/7
f 20/22/8 19/21/8 21/23/8 22/24/8
f 22/24/9 21/23/9 23/25/9 24/26/9
f 24/26/10 23/25/10 18/27/10 17/28/10
f 20/29/11 22/24/11 24/26/11 17/30/11
f 25/31/12 26/32/12 27/33/12 28/34/12
f 26/32/12 29/35/12 30/23/12 27/33/12
f 29/35/12 31/36/12 32/25/12 30/23/12
f 31/36/12 25/31/12 28/34/12 32/25/12
f 25/31/12 31/36/12 29/35/12 26/32/12
o Cylinder
s 0
f 33/37/13 34/38/13 35/39/13 36/40/13
f 36/40/14 35/39/14 37/41/14 38/42/14
f 38/42/15 37/41/15 39/43/15 40/44/15
f 40/44/16 39/43/16 41/45/16 42/46/16
f 42/46/17 41/45/17 43/47/17 44/48/17
f 44/48/18 43/47/18 45/49/18 46/50/18
f 46/50/19 45/49/19 47/51/19 48/52/19
f 48/52/20 47/51/20 49/53/20 50/54/20
f 50/54/21 49/53/21 51/55/21 52/56/21
f 35/57/22 34/58/22 53/59/22 51/60/22 49/61/22 47/62/22 45/63/22 43/64/22 41/65/22 39/66/22 37/67/22
f 52/56/23 51/55/23 53/68/23 54/69/23
f 54/69/24 53/68/24 34/70/24 33/71/24
f 33/72/25 36/73/25 38/74/25 40/75/25 42/76/25 44/77/25 46/78/25 48/79/25 50/80/25 52/81/25 54/82/25
