# Blender 5.0.1
# www.blender.org
o book_left
v 0.036481 4.264980 -0.295024
v 0.037101 4.269100 -0.281402
v 0.035599 4.271097 -0.283129
v 0.035959 4.301155 -0.255756
v 0.020593 4.289177 -0.316081
v 0.020591 4.294110 -0.303153
v 0.020564 4.296175 -0.298150
v 0.020722 4.293884 -0.302956
v 0.070188 5.067904 0.598010
v 0.068010 5.050209 0.578537
v 0.069027 5.055891 0.591207
v 0.055190 5.091136 0.577777
v 0.054496 5.080263 0.572206
v 0.812253 4.538079 -0.515866
v 0.854999 4.553477 -0.531318
v 0.810969 4.512960 -0.545911
v 0.842558 4.549330 -0.527121
v 0.836181 4.532816 -0.542447
v 0.841508 4.531530 -0.548326
v 0.811472 4.519919 -0.536760
v 0.793665 4.565001 -0.539268
v 0.793608 4.538129 -0.567790
v 0.838160 4.578790 -0.553345
v 0.793246 4.546329 -0.559716
v 0.818426 4.559084 -0.565295
v 0.824514 4.556800 -0.570309
v 0.824719 4.575846 -0.550187
v 0.844604 5.286273 0.319194
v 0.845589 5.313399 0.347452
v 0.887349 5.301672 0.303741
v 0.845428 5.305057 0.339527
v 0.869841 5.311174 0.326274
v 0.875463 5.316667 0.327961
v 0.874909 5.297525 0.307939
v 0.826015 5.313196 0.295792
v 0.870510 5.326984 0.281714
v 0.828228 5.338569 0.325573
v 0.857069 5.324040 0.284872
v 0.852086 5.337442 0.303427
v 0.858469 5.341937 0.305978
v 0.827201 5.331466 0.316571
v 0.020107 4.316362 -0.258945
v 0.018280 4.337543 -0.247090
v 0.020673 4.337145 -0.230252
v -0.019345 4.391326 -0.324573
v -0.019006 4.413039 -0.296713
v -0.019491 4.398370 -0.314959
v 0.047783 5.006988 0.516325
v 0.052222 5.050066 0.538280
v 0.011299 5.111053 0.476568
v 0.008528 5.083277 0.456833
v 0.744326 4.571549 -0.505783
v 0.787051 4.585573 -0.520003
v 0.740879 4.549305 -0.535690
v 0.775381 4.580385 -0.514903
v 0.768311 4.564846 -0.529557
v 0.772859 4.564638 -0.536031
v 0.742499 4.554679 -0.525932
v 0.695583 4.654937 -0.578609
v 0.695324 4.627211 -0.603727
v 0.741842 4.663589 -0.588153
v 0.694694 4.636437 -0.597333
v 0.721122 4.645944 -0.600391
v 0.727546 4.642598 -0.604126
v 0.727827 4.662230 -0.586392
v 0.775061 5.282335 0.287523
v 0.773759 5.309720 0.313008
v 0.817785 5.296358 0.273303
v 0.774751 5.300558 0.306542
v 0.800284 5.304285 0.295729
v 0.805111 5.310516 0.296444
v 0.806115 5.291170 0.278403
v 0.726317 5.365722 0.214698
v 0.772576 5.374374 0.205154
v 0.728204 5.387626 0.244971
v 0.758561 5.373015 0.206915
v 0.753095 5.385383 0.224896
v 0.759797 5.388476 0.228349
v 0.726946 5.382316 0.235141
v 0.012018 4.334837 -0.269825
v 0.005192 4.347574 -0.286414
v -0.006853 4.371778 -0.307582
v -0.013564 4.383782 -0.312665
v -0.013089 4.388924 -0.303528
v -0.006393 4.376772 -0.298206
v 0.000755 4.370235 -0.287388
v 0.005846 4.352338 -0.276827
v 0.012604 4.339715 -0.260445
v -0.012346 4.404071 -0.283926
v -0.005698 4.391665 -0.278122
v 0.001492 4.385593 -0.267979
v 0.006767 4.367122 -0.256644
v 0.013452 4.354794 -0.240782
v 0.040439 5.020865 0.506519
v 0.034011 5.038138 0.496210
v 0.028607 5.051167 0.479765
v 0.021702 5.062118 0.475237
v 0.014908 5.069460 0.463979
v 0.774344 5.357146 0.215212
v 0.786331 5.348137 0.228128
v 0.788663 5.331221 0.237886
v 0.801408 5.322133 0.250844
v 0.804296 5.305527 0.260300
v 0.791533 5.319521 0.283330
v 0.788649 5.336259 0.274016
v 0.775842 5.345188 0.260941
v 0.773538 5.362243 0.251320
v 0.761512 5.371103 0.238276
v 0.760190 5.318676 0.299829
v 0.757107 5.335420 0.290626
v 0.744367 5.344315 0.277470
v 0.741916 5.361388 0.267948
v 0.730014 5.370223 0.254813
v 0.697378 4.615449 -0.587589
v 0.709036 4.600973 -0.580750
v 0.711731 4.589541 -0.564932
v 0.724227 4.575005 -0.558072
v 0.727554 4.563903 -0.542573
v 0.759520 4.579176 -0.542968
v 0.756398 4.590380 -0.558458
v 0.743829 4.604843 -0.565357
v 0.741287 4.616364 -0.581154
v 0.729499 4.630758 -0.588022
v 0.773790 4.600016 -0.527120
v 0.770674 4.611348 -0.542463
v 0.758157 4.625709 -0.549535
v 0.755597 4.637352 -0.565178
v 0.743838 4.651634 -0.572209
v 0.516354 5.215415 0.357504
v 0.294224 5.156086 0.419267
v 0.138790 5.080812 0.493142
v 0.066592 5.038345 0.534804
v 0.065622 5.061477 0.548999
v 0.138022 5.102370 0.509126
v 0.293529 5.174221 0.438381
v 0.515761 5.233572 0.376594
v 0.066206 5.078957 0.559219
v 0.136796 5.113523 0.513776
v 0.292389 5.183354 0.444878
v 0.514659 5.242712 0.383084
v 0.019406 5.118964 0.464400
v 0.088827 5.162630 0.421794
v 0.243946 5.239311 0.346647
v 0.466385 5.298622 0.284888
v 0.466764 5.315146 0.305403
v 0.244232 5.255811 0.367188
v 0.089103 5.182653 0.439111
v 0.015020 5.145552 0.491967
v 0.467970 5.320443 0.315247
v 0.245416 5.261101 0.377038
v 0.090317 5.189908 0.447167
v 0.021742 5.157047 0.490976
v 0.036778 4.328493 -0.259744
v 0.108119 4.369719 -0.299883
v 0.263490 4.445301 -0.374039
v 0.485620 4.504630 -0.435802
v 0.483510 4.487693 -0.455880
v 0.261278 4.428342 -0.394093
v 0.105836 4.355960 -0.322863
v 0.035082 4.316772 -0.284603
v 0.481779 4.482296 -0.465614
v 0.259509 4.422939 -0.403820
v 0.103976 4.352492 -0.334358
v 0.035181 4.311609 -0.294669
v 0.435651 4.587837 -0.508418
v 0.213212 4.528526 -0.446659
v 0.058112 4.451557 -0.371250
v -0.009638 4.409964 -0.330936
v -0.010166 4.396276 -0.354071
v 0.056938 4.436133 -0.392777
v 0.211981 4.509932 -0.465286
v 0.434512 4.569268 -0.527071
v -0.009565 4.389682 -0.362870
v 0.057520 4.428696 -0.400803
v 0.212536 4.500686 -0.471660
v 0.435090 4.560028 -0.533451
v 0.056735 5.092293 0.541989
v 0.127805 5.123455 0.499550
v 0.282111 5.193186 0.430786
v 0.502513 5.252040 0.369515
v 0.049550 5.111205 0.530922
v 0.120686 5.141112 0.489707
v 0.274364 5.208797 0.422780
v 0.496972 5.268202 0.360930
v 0.043043 5.120082 0.517656
v 0.113113 5.149694 0.476667
v 0.265400 5.218680 0.408592
v 0.486010 5.277553 0.347297
v 0.034955 5.134224 0.510925
v 0.104789 5.164060 0.469800
v 0.258706 5.234718 0.400162
v 0.481408 5.294114 0.338316
v 0.027946 5.141883 0.498737
v 0.097678 5.172659 0.456699
v 0.251028 5.244639 0.385890
v 0.471612 5.303480 0.324624
v 0.469876 4.497267 -0.472886
v 0.249475 4.438413 -0.411615
v 0.095068 4.368000 -0.342229
v 0.026090 4.330828 -0.305879
v 0.464092 4.507787 -0.487768
v 0.241484 4.448382 -0.425918
v 0.087709 4.379927 -0.358287
v 0.017976 4.344217 -0.323288
v 0.453374 4.522779 -0.495105
v 0.232764 4.463907 -0.433810
v 0.080482 4.394392 -0.365252
v 0.011975 4.359236 -0.330767
v 0.448528 4.533700 -0.510382
v 0.225826 4.474303 -0.448536
v 0.071920 4.403062 -0.378365
v 0.003618 4.367281 -0.343315
v 0.438975 4.548706 -0.517777
v 0.218392 4.489866 -0.456512
v 0.065100 4.417320 -0.385186
v -0.003155 4.380443 -0.349133
v -0.039739 5.070185 0.589456
v -0.071124 4.270634 -0.280629
v -0.027472 5.066292 0.594219
v -0.058864 4.266376 -0.275532
v -0.008704 5.064193 0.597256
v -0.040080 4.263884 -0.272135
v 0.014752 5.063953 0.598338
v -0.016687 4.264329 -0.271680
v 0.037229 5.062100 0.600504
v 0.005929 4.262425 -0.269467
v 0.056555 5.063305 0.599416
v 0.025232 4.263330 -0.270280
v 0.069756 5.066633 0.595926
v 0.038437 4.266524 -0.273649
v 0.036889 4.271393 -0.276593
v 0.065820 5.066056 0.552109
vn -0.8815 -0.4424 0.1653
vn -0.8560 -0.4821 0.1867
vn -0.9541 -0.2249 0.1977
vn -0.8817 -0.4175 0.2196
vn -0.8500 -0.3967 0.3465
vn -0.8848 -0.4367 0.1625
vn -0.8902 -0.4096 0.1996
vn -0.9938 -0.1043 0.0374
vn -0.9180 -0.3698 0.1430
vn -0.9945 -0.0982 0.0350
vn 0.9992 0.0356 0.0159
vn 0.4414 -0.6641 0.6034
vn 0.4437 -0.7146 0.5408
vn 0.4613 -0.6937 0.5532
vn 0.4479 -0.6841 0.5757
vn 0.4303 -0.6894 0.5827
vn 0.4522 -0.6995 0.5534
vn 0.4338 -0.7771 0.4560
vn -0.4351 0.6827 -0.5870
vn -0.3693 0.6929 -0.6192
vn -0.3972 0.6523 -0.6455
vn -0.4300 0.6846 -0.5886
vn -0.4226 0.6946 -0.5821
vn -0.3548 0.6525 -0.6696
vn -0.3016 0.7069 -0.6398
vn 0.4390 -0.6882 0.5776
vn 0.4487 -0.6644 0.5977
vn 0.4635 -0.6436 0.6091
vn 0.4448 -0.6456 0.6208
vn 0.4427 -0.5873 0.6776
vn 0.4546 -0.6441 0.6153
vn 0.4311 -0.6712 0.6030
vn -0.4346 0.6808 -0.5896
vn -0.4291 0.6852 -0.5886
vn -0.3939 0.7283 -0.5608
vn -0.3688 0.7055 -0.6052
vn -0.3008 0.7249 -0.6198
vn -0.3505 0.7505 -0.5602
vn -0.4229 0.6760 -0.6035
vn -0.8279 -0.4070 0.3858
vn -0.8761 -0.1724 0.4502
vn -0.8860 -0.2443 0.3941
vn -0.8869 -0.2557 0.3847
vn -0.8383 -0.3896 0.3814
vn -0.8736 -0.3501 0.3380
vn 0.4126 -0.6579 0.6300
vn 0.4087 -0.7175 0.5641
vn 0.4108 -0.5518 0.7258
vn -0.4208 0.6871 -0.5923
vn -0.4195 0.6489 -0.6347
vn -0.4176 0.5960 -0.6859
vn 0.8755 0.4626 -0.1394
vn 0.8130 0.5807 0.0425
vn 0.8766 0.4592 -0.1442
vn 0.3105 0.7353 0.6024
vn 0.1694 0.7099 0.6836
vn 0.1751 0.7112 0.6808
vn 0.1128 -0.6071 -0.7866
vn 0.2558 -0.5293 -0.8090
vn 0.1183 -0.6044 -0.7878
vn 0.7874 -0.0097 -0.6164
vn 0.8622 0.1557 -0.4820
vn 0.8636 0.1599 -0.4781
vn 0.4142 -0.6521 0.6350
vn 0.4174 -0.6161 0.6680
vn 0.4139 -0.7246 0.5511
vn 0.3947 -0.8337 0.3861
vn -0.4170 0.7326 -0.5379
vn -0.4218 0.6900 -0.5882
vn -0.4103 0.7700 -0.4886
vn -0.0279 -0.6666 -0.7449
vn 0.0293 0.6672 0.7443
vn 0.3618 -0.7153 0.5978
vn 0.3654 -0.7967 0.4815
vn 0.4385 -0.7675 0.4677
vn 0.4659 -0.6945 0.5483
vn 0.5353 -0.6682 0.5167
vn 0.4840 -0.7676 0.4201
vn 0.3601 -0.8473 0.3905
vn -0.3322 0.6949 -0.6378
vn -0.2217 0.7034 -0.6753
vn -0.2434 0.6208 -0.7453
vn -0.3202 0.5968 -0.7357
vn -0.3096 0.5155 -0.7990
vn -0.1886 0.6048 -0.7737
vn -0.1456 0.7100 -0.6890
vn 0.3631 -0.6864 0.6301
vn 0.4683 -0.6390 0.6103
vn 0.4472 -0.5659 0.6927
vn 0.3747 -0.5800 0.7233
vn 0.3753 -0.4950 0.7837
vn 0.4946 -0.5205 0.6960
vn 0.5379 -0.6074 0.5846
vn -0.3310 0.7228 -0.6067
vn -0.3111 0.8088 -0.4991
vn -0.2348 0.8179 -0.5252
vn -0.2194 0.7567 -0.6159
vn -0.1431 0.7681 -0.6241
vn -0.1784 0.8423 -0.5086
vn -0.2946 0.8623 -0.4120
vn -0.8801 -0.4689 0.0744
vn -0.9019 -0.3406 0.2657
vn -0.9147 -0.3195 0.2476
vn -0.9131 -0.3344 0.2333
vn -0.9033 -0.3126 0.2938
vn -0.9170 -0.2911 0.2727
vn -0.3527 0.7180 -0.6001
vn -0.3455 0.7933 -0.5014
vn -0.3355 0.8461 -0.4141
vn 0.7166 0.6279 -0.3037
vn 0.6306 0.7667 -0.1200
vn 0.7087 0.6463 -0.2830
vn 0.1928 0.8915 0.4099
vn 0.1498 0.6971 0.7011
vn 0.0985 0.8666 0.4891
vn 0.0926 -0.6253 -0.7748
vn 0.1406 -0.3163 -0.9382
vn 0.0440 -0.3941 -0.9180
vn 0.6052 0.1794 -0.7756
vn 0.7043 0.3432 -0.6215
vn 0.6948 0.3250 -0.6416
vn 0.3531 -0.7185 0.5992
vn 0.3457 -0.7949 0.4987
vn 0.3356 -0.8479 0.4105
vn -0.7862 0.5057 -0.3552
vn -0.8008 0.4754 -0.3642
vn -0.8918 0.3763 -0.2511
vn -0.8973 0.3523 -0.2659
vn -0.7317 0.5050 -0.4578
vn -0.9297 0.2770 -0.2428
vn 0.3545 -0.6878 0.6334
vn -0.9037 -0.3030 0.3025
vn -0.9180 -0.2790 0.2817
vn -0.7492 -0.6434 -0.1571
vn -0.6886 -0.7118 -0.1385
vn -0.7078 0.5059 -0.4930
vn -0.9013 0.3394 -0.2693
vn 0.0281 0.6686 0.7431
vn 0.1491 0.6963 0.7021
vn 0.2737 0.4955 0.8244
vn 0.1049 0.4982 0.8607
vn 0.9806 0.1626 0.1092
vn 0.9681 -0.1283 -0.2154
vn 0.9581 -0.1599 -0.2375
vn 0.9729 0.1814 0.1434
vn 0.9758 0.2075 0.0687
vn 0.9633 -0.0829 -0.2555
vn 0.9519 -0.1213 -0.2812
vn 0.9671 0.2293 0.1101
vn 0.7232 0.6364 -0.2681
vn 0.7090 0.3086 -0.6341
vn 0.7199 0.3289 -0.6113
vn 0.7323 0.6156 -0.2912
vn 0.9787 0.1850 0.0895
vn 0.9661 -0.1062 -0.2355
vn 0.9554 -0.1411 -0.2595
vn 0.9704 0.2054 0.1273
vn 0.7388 0.6249 -0.2524
vn 0.7243 0.2911 -0.6250
vn 0.7366 0.3135 -0.5993
vn 0.7490 0.6014 -0.2780
vn -0.0477 0.8026 0.5946
vn 0.0302 0.6641 0.7470
vn 0.1876 0.7077 0.6812
vn 0.0292 0.6666 0.7449
vn 0.1492 0.6967 0.7017
vn 0.0291 0.6663 0.7451
vn 0.1885 0.7055 0.6832
vn 0.0280 0.6688 0.7429
vn -0.8095 -0.5241 -0.2647
vn -0.7796 -0.5779 -0.2413
vn -0.7571 -0.6135 -0.2245
vn -0.7406 -0.6436 -0.1932
vn -0.7599 -0.6218 -0.1895
vn -0.8109 -0.5553 -0.1844
vn -0.8843 -0.4665 0.0209
vn -0.9249 -0.2909 0.2449
vn -0.9290 -0.2584 0.2647
vn -0.9401 -0.2367 0.2453
vn -0.9369 -0.2601 0.2334
vn -0.9594 -0.1925 0.2062
vn -0.9593 -0.1990 0.2002
vn -0.9172 -0.2806 0.2830
vn -0.9209 -0.2813 0.2699
vn -0.8686 -0.3540 0.3466
vn -0.8692 -0.3677 0.3306
vn 0.8752 -0.3304 -0.3532
vn 0.6300 0.1478 -0.7624
vn 0.8731 -0.3140 -0.3731
vn 0.6169 0.1637 -0.7698
vn 0.8709 -0.2958 -0.3924
vn 0.2187 -0.7747 -0.5933
vn 0.3440 -0.7368 -0.5821
vn 0.0919 -0.6263 -0.7741
vn 0.1437 -0.3268 -0.9341
vn 0.1317 -0.6081 -0.7828
vn 0.3418 -0.7326 -0.5886
vn 0.0920 -0.6259 -0.7744
vn 0.1417 -0.3217 -0.9362
vn 0.1308 -0.6058 -0.7848
vn 0.3406 -0.7280 -0.5949
vn 0.3967 0.4837 0.7801
vn 0.1962 0.8862 0.4197
vn 0.3947 0.4907 0.7768
vn 0.1941 0.8889 0.4150
vn 0.3936 0.4976 0.7730
vn 0.9017 0.2807 0.3289
vn 0.6560 0.7492 -0.0911
vn 0.8997 0.3023 0.3148
vn 0.6426 0.7589 -0.1056
vn 0.8977 0.3236 0.2989
vn -0.9178 -0.3176 0.2381
vn -0.9331 -0.2685 0.2391
vn -0.9509 -0.2233 0.2142
vn -0.9252 -0.2646 0.2719
vn -0.8993 -0.3269 0.2906
vn -0.9176 -0.2765 0.2857
vn -0.9356 -0.2656 0.2327
vn -0.9399 -0.2337 0.2488
vn -0.0297 -0.6652 -0.7460
vn -0.0296 -0.6655 -0.7458
vn -0.0392 -0.6557 -0.7540
vn -0.0242 -0.6729 -0.7393
vn -0.0391 -0.6613 -0.7491
vn -0.0331 -0.6621 -0.7487
vn -0.0250 -0.6767 -0.7358
vn -0.0609 -0.6342 -0.7708
vn -0.0285 -0.6677 -0.7439
vn -0.0220 -0.6767 -0.7359
vn -0.0277 -0.6694 -0.7424
vn -0.0478 -0.6496 -0.7588
vn -0.0285 -0.6675 -0.7441
vn -0.0377 -0.6557 -0.7541
vn -0.0434 -0.6540 -0.7552
vn -0.0238 -0.6743 -0.7381
vn -0.0275 -0.6700 -0.7419
vn -0.0235 -0.6774 -0.7352
vn -0.0300 -0.6700 -0.7418
vn -0.0560 -0.6477 -0.7598
vn -0.1041 -0.5003 -0.8596
vn -0.1238 -0.5079 -0.8525
vn -0.1497 -0.5266 -0.8368
vn -0.1544 -0.5360 -0.8300
vn 0.1249 0.6890 0.7139
vn 0.0688 0.6894 0.7211
vn 0.0730 0.6883 0.7218
vn 0.0942 0.7252 0.6821
vn 0.0201 0.6784 0.7344
vn 0.0343 0.6622 0.7486
vn 0.1036 0.7135 0.6929
vn 0.0756 0.6817 0.7277
vn 0.0369 0.6579 0.7522
vn 0.1296 0.6843 0.7176
vn 0.0633 0.6928 0.7183
vn 0.0214 0.6784 0.7344
vn 0.0988 0.7113 0.6959
vn 0.0780 0.6788 0.7302
vn 0.0353 0.6571 0.7530
vn -0.0030 0.8031 0.5958
vn -0.0406 0.7974 0.6022
vn -0.0660 0.7960 0.6016
vn 0.1920 0.5255 0.8289
vn 0.2534 0.5358 0.8054
vn 0.1238 0.5066 0.8532
vn -0.3539 0.6887 -0.6328
vn -0.4638 0.6664 -0.5837
vn -0.4631 0.6698 -0.5804
vn -0.6069 0.6281 -0.4870
vn -0.6129 0.5734 -0.5437
vn 0.0486 -0.8040 -0.5927
vn 0.0673 -0.7972 -0.5999
vn 0.0982 -0.7884 -0.6072
vn 0.1105 -0.7878 -0.6059
vn 0.5727 -0.6212 0.5350
vn 0.6112 -0.6526 0.4479
vn 0.6210 -0.5304 0.5772
vn 0.5877 -0.6667 0.4584
vn 0.5946 -0.5470 0.5892
vn 0.4582 -0.6977 0.5507
vn 0.4602 -0.6407 0.6146
vn -0.3497 0.5174 -0.7810
vn -0.3539 0.5986 -0.7186
vn -0.4564 0.5242 -0.7190
vn -0.4611 0.5979 -0.6556
vn -0.5912 0.5492 -0.5907
vn -0.5980 0.6046 -0.5262
vn 0.8168 -0.3326 0.4714
vn 0.5929 -0.7460 0.3031
vn 0.5856 -0.7679 0.2595
vn 0.5383 -0.8015 0.2605
vn 0.5609 -0.7599 0.3286
vn 0.4222 -0.8420 0.3360
vn 0.4411 -0.7887 0.4283
vn -0.2629 -0.9243 0.2768
vn -0.6513 0.4924 -0.5773
vn -0.6406 0.4930 -0.5887
vn -0.5942 0.6164 -0.5167
vn -0.6036 0.5803 -0.5468
vn -0.4432 0.7881 -0.4271
vn -0.4538 0.7329 -0.5068
vn -0.8720 0.3063 -0.3818
vn 0.3500 -0.5140 0.7832
vn 0.3543 -0.5961 0.7205
vn 0.4380 -0.4410 0.7834
vn 0.4511 -0.5278 0.7197
vn 0.5611 -0.3609 0.7449
vn 0.5782 -0.4237 0.6972
vn 0.6117 -0.3539 0.7075
vn 0.6155 -0.3921 0.6837
vn -0.4597 -0.6455 0.6100
vn -0.2020 -0.7171 0.6671
vn -0.0190 -0.7355 0.6772
vn -0.1261 -0.7281 0.6738
vn 0.0733 -0.7354 0.6736
vn 0.3366 -0.6990 0.6310
vn 0.0126 -0.7649 -0.6440
vn -0.0125 0.7659 0.6429
vn 0.9846 -0.1483 0.0920
vn -0.8566 -0.0843 0.5090
vt 0.795486 0.847907
vt 0.795230 0.844435
vt 0.795426 0.843062
vt 0.796231 0.844433
vt 0.796254 0.836956
vt 0.806173 0.847887
vt 0.806326 0.844414
vt 0.806527 0.843042
vt 0.806416 0.844414
vt 0.907836 0.663810
vt 0.907836 0.655884
vt 0.908046 0.657245
vt 0.805831 0.836510
vt 0.020220 0.320706
vt 0.020167 0.328183
vt 0.012622 0.326809
vt 0.010985 0.320705
vt 0.007268 0.320704
vt 0.010943 0.328181
vt 0.020102 0.331279
vt 0.272220 0.018222
vt 0.262878 0.018221
vt 0.264534 0.012117
vt 0.272154 0.010746
vt 0.272057 0.007649
vt 0.262810 0.010745
vt 0.259082 0.018222
vt 0.020247 0.017842
vt 0.011013 0.017840
vt 0.012649 0.011736
vt 0.020193 0.010365
vt 0.020128 0.007268
vt 0.010969 0.010363
vt 0.007295 0.017840
vt 0.272221 0.321087
vt 0.272151 0.328563
vt 0.264533 0.327191
vt 0.262878 0.321086
vt 0.259082 0.321086
vt 0.262808 0.328563
vt 0.272054 0.331661
vt 0.805569 0.523500
vt 0.805824 0.526597
vt 0.796371 0.526614
vt 0.795473 0.523519
vt 0.805268 0.534549
vt 0.795887 0.534092
vt 0.244535 0.010365
vt 0.244492 0.017841
vt 0.244519 0.007268
vt 0.495814 0.320607
vt 0.495799 0.328557
vt 0.495805 0.331655
vt 0.832881 0.353291
vt 0.832332 0.345815
vt 0.842459 0.345815
vt 0.843001 0.353291
vt 0.868614 0.588923
vt 0.867760 0.598310
vt 0.857660 0.597284
vt 0.858515 0.588004
vt 0.858514 0.349929
vt 0.857660 0.340541
vt 0.867759 0.339621
vt 0.868614 0.348903
vt 0.832332 0.663633
vt 0.832881 0.656156
vt 0.843001 0.656156
vt 0.842459 0.663633
vt 0.244478 0.320705
vt 0.244534 0.326810
vt 0.244547 0.328183
vt 0.244530 0.331655
vt 0.495799 0.010740
vt 0.495814 0.018646
vt 0.495806 0.007268
vt 0.868348 0.573468
vt 0.857660 0.573427
vt 0.858518 0.821829
vt 0.868614 0.821790
vt 0.523083 0.305054
vt 0.523243 0.312156
vt 0.515820 0.310853
vt 0.514038 0.305054
vt 0.510350 0.305054
vt 0.514195 0.312156
vt 0.523272 0.315097
vt 0.523204 0.339683
vt 0.514065 0.339684
vt 0.515872 0.333885
vt 0.523371 0.332581
vt 0.523411 0.329639
vt 0.514240 0.332582
vt 0.510349 0.339685
vt 0.523083 0.017333
vt 0.514038 0.017333
vt 0.515820 0.011533
vt 0.523243 0.010229
vt 0.523272 0.007286
vt 0.514195 0.010229
vt 0.510350 0.017333
vt 0.523204 0.627405
vt 0.523372 0.634508
vt 0.515872 0.633205
vt 0.514065 0.627405
vt 0.510349 0.627406
vt 0.514241 0.634509
vt 0.523411 0.637451
vt 0.493044 0.991500
vt 0.492835 0.988580
vt 0.497689 0.989265
vt 0.497363 0.992642
vt 0.492747 0.981529
vt 0.497795 0.982597
vt 0.598050 0.627401
vt 0.598291 0.634504
vt 0.598346 0.637447
vt 0.585664 0.693001
vt 0.584998 0.685951
vt 0.590430 0.684830
vt 0.591096 0.691933
vt 0.655947 0.686600
vt 0.656191 0.695855
vt 0.650970 0.694090
vt 0.650726 0.684830
vt 0.726549 0.695855
vt 0.726793 0.686600
vt 0.732014 0.684830
vt 0.731771 0.694090
vt 0.584998 0.985638
vt 0.585664 0.978587
vt 0.591096 0.979655
vt 0.590430 0.986758
vt 0.597401 0.305045
vt 0.597640 0.312148
vt 0.597700 0.315089
vt 0.726901 0.339677
vt 0.726940 0.332575
vt 0.731187 0.333011
vt 0.731185 0.339679
vt 0.726986 0.329633
vt 0.731196 0.329635
vt 0.597401 0.017324
vt 0.492747 0.695943
vt 0.497064 0.694875
vt 0.704227 0.898459
vt 0.705575 0.902663
vt 0.701255 0.902710
vt 0.699886 0.898536
vt 0.726901 0.627398
vt 0.731168 0.627400
vt 0.678023 0.770946
vt 0.676373 0.696594
vt 0.681466 0.695195
vt 0.683140 0.770069
vt 0.565592 0.693001
vt 0.565592 0.978587
vt 0.560766 0.979655
vt 0.560766 0.691933
vt 0.580890 0.979655
vt 0.580890 0.691933
vt 0.575580 0.978587
vt 0.575580 0.693001
vt 0.570779 0.979655
vt 0.570779 0.691933
vt 0.652596 0.768654
vt 0.657811 0.770008
vt 0.661182 0.694866
vt 0.662834 0.769720
vt 0.666305 0.696428
vt 0.667945 0.770771
vt 0.671347 0.695236
vt 0.673016 0.770191
vt 0.730694 0.897790
vt 0.732014 0.902829
vt 0.725754 0.902741
vt 0.724438 0.897776
vt 0.720759 0.902785
vt 0.719412 0.898291
vt 0.709230 0.898634
vt 0.710595 0.902746
vt 0.466861 0.982597
vt 0.467346 0.694875
vt 0.472565 0.695943
vt 0.472565 0.981529
vt 0.477555 0.694875
vt 0.477555 0.982597
vt 0.482677 0.695943
vt 0.482677 0.981529
vt 0.487721 0.694875
vt 0.487721 0.982597
vt 0.560104 0.986758
vt 0.564928 0.985638
vt 0.570114 0.986758
vt 0.574915 0.985638
vt 0.580223 0.986758
vt 0.701274 0.695195
vt 0.701522 0.685867
vt 0.706614 0.687295
vt 0.706367 0.696594
vt 0.711642 0.685899
vt 0.711393 0.695236
vt 0.716682 0.687136
vt 0.716435 0.696428
vt 0.721806 0.685552
vt 0.721559 0.694866
vt 0.681218 0.685867
vt 0.676126 0.687295
vt 0.671098 0.685899
vt 0.666058 0.687136
vt 0.660935 0.685552
vt 0.560104 0.684830
vt 0.564928 0.685950
vt 0.570114 0.684830
vt 0.574915 0.685950
vt 0.580223 0.684830
vt 0.465319 0.989694
vt 0.472659 0.988580
vt 0.477650 0.989700
vt 0.482768 0.988580
vt 0.487812 0.989700
vt 0.466604 0.992642
vt 0.472866 0.991500
vt 0.477859 0.992642
vt 0.488023 0.992642
vt 0.709724 0.770191
vt 0.704717 0.770946
vt 0.708933 0.834521
vt 0.703936 0.834665
vt 0.708766 0.877995
vt 0.703770 0.877816
vt 0.714795 0.770771
vt 0.714022 0.834502
vt 0.713856 0.877667
vt 0.714305 0.898338
vt 0.719906 0.769720
vt 0.719126 0.834027
vt 0.718959 0.877541
vt 0.724930 0.770008
vt 0.724171 0.833684
vt 0.724004 0.876913
vt 0.730144 0.768654
vt 0.729380 0.832870
vt 0.729213 0.876474
vt 0.673510 0.898635
vt 0.673974 0.877995
vt 0.678970 0.877816
vt 0.678513 0.898460
vt 0.673807 0.834522
vt 0.678804 0.834666
vt 0.668435 0.898338
vt 0.668884 0.877667
vt 0.668718 0.834502
vt 0.663328 0.898291
vt 0.663781 0.877541
vt 0.663614 0.834027
vt 0.658302 0.897776
vt 0.658736 0.876914
vt 0.658570 0.833684
vt 0.652046 0.897749
vt 0.653528 0.876475
vt 0.653360 0.832870
vt 0.684102 0.877838
vt 0.682854 0.898536
vt 0.683935 0.834355
vt 0.598050 0.339680
vt 0.662368 0.339677
vt 0.662368 0.627399
vt 0.705941 0.339676
vt 0.705941 0.627398
vt 0.699600 0.770069
vt 0.698805 0.834355
vt 0.698638 0.877837
vt 0.731936 0.017314
vt 0.731916 0.305035
vt 0.726717 0.305034
vt 0.726357 0.017313
vt 0.705107 0.305035
vt 0.705107 0.017314
vt 0.661501 0.305039
vt 0.661501 0.017318
vt 0.598346 0.329636
vt 0.598291 0.332577
vt 0.662697 0.329634
vt 0.662635 0.332575
vt 0.706232 0.329632
vt 0.706174 0.332574
vt 0.732020 0.312134
vt 0.731934 0.315080
vt 0.726813 0.315079
vt 0.726813 0.312136
vt 0.705414 0.315079
vt 0.705353 0.312138
vt 0.661839 0.315082
vt 0.661769 0.312141
vt 0.726940 0.634502
vt 0.726986 0.637444
vt 0.706232 0.637444
vt 0.706174 0.634501
vt 0.662697 0.637445
vt 0.662635 0.634502
vt 0.731187 0.634069
vt 0.597700 0.007278
vt 0.597640 0.010221
vt 0.661839 0.007271
vt 0.661769 0.010215
vt 0.705414 0.007268
vt 0.705353 0.010211
vt 0.726772 0.007268
vt 0.726725 0.008739
vt 0.726678 0.010210
vt 0.761489 0.458703
vt 0.761489 0.782715
vt 0.759842 0.782717
vt 0.759842 0.458706
vt 0.757291 0.782719
vt 0.757291 0.458707
vt 0.754223 0.782720
vt 0.754223 0.458708
vt 0.751105 0.782719
vt 0.751105 0.458708
vt 0.748412 0.782718
vt 0.748412 0.458707
vt 0.746555 0.782716
vt 0.746555 0.458705
vt 0.909412 0.639596
vt 0.907836 0.641349
vt 0.907836 0.626405
vt 0.909412 0.628158
vt 0.910466 0.630782
vt 0.910836 0.633877
vt 0.910466 0.636972
vt 0.910836 0.611870
vt 0.909259 0.610116
vt 0.908206 0.607493
vt 0.907836 0.604398
vt 0.908206 0.601303
vt 0.909259 0.598679
vt 0.910836 0.596925
vt 0.883149 0.784658
vt 0.883149 0.489839
vt 0.883226 0.791800
vt 0.000000 0.000000
s 1
usemtl Book
f 1/1/1 2/2/2 231/3/3 3/4/4
f 4/5/5 3/4/4 231/3/3
f 5/6/6 8/7/7 7/8/8 6/9/9
f 43/10/10 6/11/9 7/12/8
f 43/13/11 7/8/11 8/7/11
f 14/14/12 20/15/13 18/16/14 17/17/15
f 15/18/16 17/17/15 18/16/14 19/19/17
f 16/20/18 19/19/17 18/16/14 20/15/13
f 21/21/19 27/22/20 25/23/21 24/24/22
f 22/25/23 24/24/22 25/23/21 26/26/24
f 23/27/25 26/26/24 25/23/21 27/22/20
f 28/28/26 34/29/27 32/30/28 31/31/29
f 29/32/30 31/31/29 32/30/28 33/33/31
f 30/34/32 33/33/31 32/30/28 34/29/27
f 35/35/33 41/36/34 39/37/35 38/38/36
f 36/39/37 38/38/36 39/37/35 40/40/38
f 37/41/39 40/40/38 39/37/35 41/36/34
f 1/1/1 3/4/4 8/7/7 5/6/6
f 3/4/4 4/5/5 43/13/40 8/7/7
f 12/42/41 13/43/42 11/44/43 9/45/41
f 13/43/42 49/46/44 10/47/45 11/44/43
f 28/28/26 31/31/29 11/48/46 10/49/47
f 31/31/29 29/32/30 9/50/48 11/48/46
f 49/51/49 13/52/50 41/36/34 35/35/33
f 13/52/50 12/53/51 37/41/39 41/36/34
f 36/54/52 40/55/53 33/56/53 30/57/54
f 40/58/55 37/59/56 29/60/57 33/61/55
f 14/14/12 17/17/15 34/29/27 28/28/26
f 17/17/15 15/18/16 30/34/32 34/29/27
f 35/35/33 38/38/36 27/22/20 21/21/19
f 38/38/36 36/39/37 23/27/25 27/22/20
f 22/62/58 26/63/59 19/64/59 16/65/60
f 26/66/61 23/67/62 15/68/63 19/69/61
f 4/70/64 231/71/65 2/72/66 20/15/13 14/14/12
f 2/72/66 1/73/67 16/20/18 20/15/13
f 21/21/19 24/24/22 6/74/68 43/75/69
f 24/24/22 22/25/23 5/76/70 6/74/68
f 10/49/47 4/70/64 14/14/12 28/28/26
f 4/5/5 10/47/45 49/46/44 43/13/40
f 16/65/60 1/77/71 5/78/71 22/62/58
f 35/35/33 21/21/19 43/75/69 49/51/49
f 9/79/72 29/60/57 37/59/56 12/80/72
f 30/57/54 15/68/63 23/67/62 36/54/52
f 52/81/73 58/82/74 56/83/75 55/84/76
f 53/85/77 55/84/76 56/83/75 57/86/78
f 54/87/79 57/86/78 56/83/75 58/82/74
f 59/88/80 65/89/81 63/90/82 62/91/83
f 60/92/84 62/91/83 63/90/82 64/93/85
f 61/94/86 64/93/85 63/90/82 65/89/81
f 66/95/87 72/96/88 70/97/89 69/98/90
f 67/99/91 69/98/90 70/97/89 71/100/92
f 68/101/93 71/100/92 70/97/89 72/96/88
f 73/102/94 79/103/95 77/104/96 76/105/97
f 74/106/98 76/105/97 77/104/96 78/107/99
f 75/108/100 78/107/99 77/104/96 79/103/95
f 83/109/101 84/110/102 47/111/103 45/112/104
f 84/110/102 89/113/105 46/114/106 47/111/103
f 144/115/107 145/116/108 79/103/95 73/102/94
f 145/116/108 149/117/109 75/108/100 79/103/95
f 103/118/110 104/119/111 71/120/111 68/121/112
f 104/122/113 109/123/114 67/124/115 71/125/113
f 52/81/73 55/84/76 72/96/88 66/95/87
f 55/84/76 53/85/77 68/101/93 72/96/88
f 73/102/94 76/105/97 65/89/81 59/88/80
f 76/105/97 74/106/98 61/94/86 65/89/81
f 118/126/116 119/127/117 57/128/117 54/129/118
f 119/130/119 124/131/120 53/132/121 57/133/119
f 156/134/122 157/135/123 58/82/74 52/81/73
f 157/135/123 161/136/124 54/87/79 58/82/74
f 168/137/125 169/138/126 47/139/127 46/140/128
f 169/138/126 173/141/129 45/142/130 47/139/127
f 129/143/131 156/134/122 52/81/73 66/95/87
f 89/113/105 98/144/132 51/145/133 46/114/106
f 216/146/134 83/147/101 45/148/135 173/149/135
f 141/150/136 168/137/125 46/140/128 51/151/137
f 196/152/138 113/153/139 75/154/140 149/155/141
f 99/156/142 128/157/143 61/158/144 74/159/145
f 68/121/112 53/132/121 124/131/120 103/118/110
f 103/118/146 124/131/147 125/160/148 102/161/149
f 102/161/150 125/160/151 126/162/152 101/163/153
f 101/163/154 126/162/155 127/164/156 100/165/157
f 100/165/158 127/164/159 128/157/160 99/156/161
f 140/166/162 67/124/115 109/123/114 180/167/163
f 180/167/163 109/123/114 110/168/164 184/169/165
f 184/169/165 110/168/164 111/170/166 188/171/167
f 188/171/167 111/170/166 112/172/168 192/173/169
f 192/173/169 112/172/168 113/153/139 196/152/138
f 164/174/170 42/175/170 80/176/171 200/177/172
f 200/177/172 80/176/171 81/178/173 204/179/174
f 212/180/175 82/181/176 83/147/101 216/146/134
f 44/182/177 48/183/178 94/184/179 93/185/180
f 93/185/180 94/184/179 95/186/181 92/187/182
f 92/187/182 95/186/181 96/188/183 91/189/184
f 91/189/184 96/188/183 97/190/185 90/191/186
f 90/191/186 97/190/185 98/144/132 89/113/105
f 64/192/187 61/158/144 128/157/143 123/193/187
f 123/193/188 128/157/160 127/164/159 122/194/188
f 122/194/189 127/164/156 126/162/155 121/195/189
f 121/195/190 126/162/152 125/160/151 120/196/190
f 120/196/191 125/160/148 124/131/147 119/130/191
f 60/197/192 64/198/193 123/199/193 114/200/194
f 114/200/194 123/199/195 122/201/195 115/202/196
f 115/202/196 122/201/197 121/203/197 116/204/198
f 116/204/198 121/203/199 120/205/199 117/206/200
f 117/206/200 120/205/201 119/127/201 118/126/116
f 78/207/202 75/154/140 113/153/139 108/208/202
f 108/208/203 113/153/139 112/172/168 107/209/203
f 107/209/204 112/172/168 111/170/166 106/210/204
f 106/210/205 111/170/166 110/168/164 105/211/205
f 105/211/206 110/168/164 109/123/114 104/122/206
f 74/159/145 78/212/207 108/213/207 99/156/142
f 99/156/161 108/213/208 107/214/208 100/165/158
f 100/165/157 107/214/209 106/215/209 101/163/154
f 101/163/153 106/215/210 105/216/210 102/161/150
f 102/161/149 105/216/211 104/119/211 103/118/146
f 43/217/212 44/182/177 93/185/180 88/218/213
f 88/218/213 93/185/180 92/187/182 87/219/214
f 87/219/214 92/187/182 91/189/184 86/220/215
f 86/220/215 91/189/184 90/191/186 85/221/216
f 85/221/216 90/191/186 89/113/105 84/110/102
f 42/222/217 43/217/212 88/218/213 80/223/218
f 80/223/218 88/218/213 87/219/214 81/224/219
f 82/225/176 85/221/216 84/110/102 83/109/101
f 115/202/196 209/226/220 213/227/221 114/200/194
f 209/226/220 210/228/222 214/229/223 213/227/221
f 210/228/222 211/230/224 215/231/225 214/229/223
f 211/230/224 212/180/226 216/146/227 215/231/225
f 116/204/198 205/232/228 209/226/220 115/202/196
f 205/232/228 206/233/229 210/228/222 209/226/220
f 206/233/229 207/234/230 211/230/224 210/228/222
f 207/234/230 208/235/231 212/180/226 211/230/224
f 117/206/200 201/236/232 205/232/228 116/204/198
f 201/236/232 202/237/233 206/233/229 205/232/228
f 202/237/233 203/238/234 207/234/230 206/233/229
f 203/238/234 204/179/235 208/235/231 207/234/230
f 118/126/116 197/239/236 201/236/232 117/206/200
f 197/239/236 198/240/237 202/237/233 201/236/232
f 198/240/237 199/241/238 203/238/234 202/237/233
f 199/241/238 200/177/239 204/179/235 203/238/234
f 54/129/118 161/242/240 197/239/236 118/126/116
f 161/242/240 162/243/241 198/240/237 197/239/236
f 162/243/241 163/244/242 199/241/238 198/240/237
f 163/244/242 164/174/243 200/177/239 199/241/238
f 189/245/244 190/246/245 194/247/246 193/248/247
f 190/246/245 191/249/248 195/250/249 194/247/246
f 191/249/248 192/173/169 196/152/138 195/250/249
f 185/251/250 186/252/251 190/246/245 189/245/244
f 186/252/251 187/253/252 191/249/248 190/246/245
f 187/253/252 188/171/167 192/173/169 191/249/248
f 181/254/253 182/255/254 186/252/251 185/251/250
f 182/255/254 183/256/255 187/253/252 186/252/251
f 183/256/255 184/169/165 188/171/167 187/253/252
f 177/257/256 178/258/257 182/255/254 181/254/253
f 178/258/257 179/259/258 183/256/255 182/255/254
f 179/259/258 180/167/163 184/169/165 183/256/255
f 137/260/259 138/261/260 178/258/257 177/257/256
f 138/261/260 139/262/261 179/259/258 178/258/257
f 139/262/261 140/166/162 180/167/163 179/259/258
f 193/248/247 194/247/246 151/263/262 152/264/263
f 194/247/246 195/250/249 150/265/264 151/263/262
f 195/250/249 196/152/138 149/155/141 150/265/264
f 73/102/94 59/88/80 165/266/265 144/115/107
f 144/115/107 165/266/265 166/267/266 143/268/267
f 143/268/267 166/267/266 167/269/268 142/270/269
f 142/270/269 167/269/268 168/137/125 141/150/136
f 114/200/194 213/227/221 176/271/270 60/197/192
f 213/227/221 214/229/223 175/272/271 176/271/270
f 214/229/223 215/231/225 174/273/272 175/272/271
f 215/231/225 216/146/227 173/149/273 174/273/272
f 48/274/274 44/275/274 153/276/275 132/277/276
f 132/277/276 153/276/275 154/278/277 131/279/278
f 131/279/278 154/278/277 155/280/279 130/281/280
f 130/281/280 155/280/279 156/134/122 129/143/131
f 62/91/83 60/92/84 176/282/281 172/283/282
f 172/283/282 176/282/281 175/284/283 171/285/284
f 171/285/284 175/284/283 174/286/285 170/287/286
f 170/287/286 174/286/285 173/141/129 169/138/126
f 59/88/80 62/91/83 172/283/282 165/266/265
f 165/266/265 172/283/282 171/285/284 166/267/266
f 166/267/266 171/285/284 170/287/286 167/269/268
f 167/269/268 170/287/286 169/138/126 168/137/125
f 43/288/287 42/289/287 164/290/287 160/291/287
f 160/291/288 164/290/289 163/292/290 159/293/291
f 159/293/291 163/292/290 162/294/292 158/295/293
f 158/295/293 162/294/292 161/136/124 157/135/123
f 44/275/294 43/288/294 160/291/294 153/276/294
f 153/276/275 160/291/288 159/293/291 154/278/277
f 154/278/277 159/293/291 158/295/293 155/280/279
f 155/280/279 158/295/293 157/135/123 156/134/122
f 148/296/295 152/297/296 151/298/297 147/299/298
f 147/299/298 151/298/297 150/300/299 146/301/300
f 146/301/300 150/300/299 149/117/109 145/116/108
f 51/151/301 50/302/301 148/296/301 141/150/301
f 141/150/136 148/296/295 147/299/298 142/270/269
f 142/270/269 147/299/298 146/301/300 143/268/267
f 143/268/267 146/301/300 145/116/108 144/115/107
f 69/98/90 67/99/91 140/303/302 136/304/303
f 136/304/303 140/303/302 139/305/304 135/306/305
f 135/306/305 139/305/304 138/307/306 134/308/307
f 134/308/307 138/307/306 137/309/308 232/310/308 133/311/309
f 66/95/87 69/98/90 136/304/303 129/143/131
f 129/143/131 136/304/303 135/306/305 130/281/280
f 130/281/280 135/306/305 134/308/307 131/279/278
f 131/279/278 134/308/307 133/311/309 132/277/276
f 217/312/310 218/313/310 220/314/310 219/315/310
f 219/315/311 220/314/311 222/316/311 221/317/311
f 221/317/312 222/316/312 224/318/312 223/319/312
f 223/319/313 224/318/313 226/320/313 225/321/313
f 225/321/314 226/320/314 228/322/314 227/323/314
f 227/323/315 228/322/315 230/324/315 229/325/315
f 220/326/316 218/327/316 230/328/316 228/329/316 226/330/316 224/331/316 222/332/316
f 217/333/317 219/334/317 221/335/317 223/336/317 225/337/317 227/338/317 229/339/317
f 48/340/318 43/341/318 49/342/318
f 81/178/173 82/181/176 212/180/175 204/179/174
f 86/220/215 85/221/216 82/181/176 81/224/219 87/219/214
f 132/343/319 133/343/319 232/343/319 137/343/319 177/343/319 181/343/319 185/343/319 189/343/319 193/343/319 152/343/319 148/343/319 141/343/319 51/343/319 98/343/319 97/343/319 96/343/319 95/343/319 94/343/319 48/343/319
