# Blender 5.0.1
# www.blender.org
o book_right
v -0.073495 4.283360 -0.257110
v -0.073558 4.268927 -0.296942
v -0.072979 4.283991 -0.257693
v -0.073639 4.272521 -0.284697
v -0.073455 4.274481 -0.279612
v -0.073301 4.272997 -0.285136
v -0.073266 4.283522 -0.257263
v -0.063290 4.291957 -0.317986
v -0.061941 4.307147 -0.278845
v -0.062292 4.306250 -0.278027
v -0.062712 4.296438 -0.306552
v -0.062623 4.298101 -0.301192
v -0.062019 4.306876 -0.278599
v -0.062972 4.295809 -0.305977
v -0.038912 5.070394 0.595483
v -0.040891 5.032514 0.577071
v -0.039564 5.057168 0.589742
v -0.029572 5.056169 0.555459
v -0.028679 5.093492 0.574377
v -0.029920 5.055271 0.556277
v -0.028759 5.082618 0.568782
v -0.028960 5.077472 0.566605
v -0.029017 5.081988 0.569358
v -0.029649 5.055897 0.555705
v -0.837361 4.533867 -0.452724
v -0.881641 4.546797 -0.462594
v -0.838395 4.508746 -0.482777
v -0.869072 4.542693 -0.459403
v -0.863971 4.526198 -0.475191
v -0.869664 4.524892 -0.480626
v -0.838194 4.515707 -0.473615
v -0.820763 4.560823 -0.477519
v -0.822894 4.533946 -0.505957
v -0.866653 4.572135 -0.485877
v -0.821919 4.542149 -0.497937
v -0.848146 4.552495 -0.499366
v -0.854523 4.550189 -0.503878
v -0.853178 4.569237 -0.483803
v -0.805008 5.282062 0.382335
v -0.803794 5.309185 0.410587
v -0.849289 5.294991 0.372466
v -0.804251 5.300843 0.402672
v -0.830320 5.304556 0.393531
v -0.835721 5.310029 0.395662
v -0.836720 5.290887 0.375656
v -0.788410 5.309018 0.357540
v -0.834300 5.320330 0.349183
v -0.788293 5.334385 0.387408
v -0.820825 5.317432 0.351257
v -0.814495 5.330853 0.369356
v -0.820580 5.335326 0.372409
v -0.787977 5.327286 0.378350
v -0.061905 4.319400 -0.252294
v -0.056930 4.318686 -0.262583
v -0.056325 4.338083 -0.232649
v -0.061998 4.307845 -0.277357
v -0.061820 4.309810 -0.272622
v -0.056852 4.323432 -0.252963
v -0.061596 4.319624 -0.252507
v -0.022935 4.393476 -0.330911
v -0.023366 4.404090 -0.329674
v -0.022355 4.412895 -0.300995
v -0.024465 4.390882 -0.353221
v -0.024667 4.392113 -0.347811
v -0.023964 4.402662 -0.328369
v -0.022912 4.398225 -0.321292
v -0.031154 5.030616 0.540618
v -0.027245 5.010631 0.517980
v -0.029563 5.038193 0.540458
v -0.030844 5.030840 0.540406
v -0.029830 5.049927 0.552046
v -0.026336 5.029185 0.534727
v -0.033475 5.054448 0.554455
v 0.007357 5.114992 0.463526
v 0.008149 5.112459 0.472610
v 0.006725 5.085442 0.449635
v 0.007755 5.136795 0.479222
v 0.007279 5.131590 0.477441
v 0.007585 5.103609 0.466736
v 0.006760 5.113549 0.464844
v -0.770757 4.565254 -0.445987
v -0.813801 4.579102 -0.456727
v -0.769663 4.543018 -0.476077
v -0.801951 4.573963 -0.452581
v -0.796136 4.558451 -0.467759
v -0.801094 4.558221 -0.473845
v -0.770515 4.548389 -0.466221
v -0.727940 4.648682 -0.522395
v -0.729646 4.620961 -0.547462
v -0.774122 4.657151 -0.528194
v -0.728521 4.630186 -0.541135
v -0.754703 4.639585 -0.542058
v -0.761311 4.636215 -0.545267
v -0.760202 4.655843 -0.527561
v -0.740023 5.276040 0.347319
v -0.736783 5.303432 0.372621
v -0.783067 5.289887 0.336580
v -0.738263 5.294268 0.366254
v -0.764163 5.297889 0.357528
v -0.768842 5.304100 0.358629
v -0.771217 5.284748 0.340726
v -0.697207 5.359467 0.270912
v -0.743388 5.367937 0.265112
v -0.696766 5.381375 0.301236
v -0.729468 5.366628 0.265745
v -0.722730 5.379023 0.283229
v -0.729060 5.382094 0.287207
v -0.696270 5.376064 0.291339
v -0.051298 4.334449 -0.271563
v -0.046340 4.347084 -0.288518
v -0.038476 4.364772 -0.299264
v -0.033558 4.371555 -0.310883
v -0.028310 4.383678 -0.316543
v -0.028373 4.388685 -0.307262
v -0.033647 4.376555 -0.301492
v -0.038498 4.370051 -0.290234
v -0.046019 4.351806 -0.278880
v -0.051091 4.339298 -0.262142
v -0.027864 4.403689 -0.287520
v -0.033246 4.391243 -0.281213
v -0.038110 4.385041 -0.270479
v -0.045281 4.366576 -0.258676
v -0.050476 4.354377 -0.242469
v 0.002512 5.097249 0.481088
v -0.002550 5.090309 0.492847
v -0.007730 5.078172 0.498522
v -0.015230 5.066592 0.514523
v -0.020420 5.048619 0.525521
v -0.020801 5.039815 0.519704
v -0.015503 5.057559 0.508810
v -0.008327 5.069935 0.492191
v -0.003221 5.081697 0.486757
v 0.001871 5.088758 0.474990
v -0.021613 5.021935 0.502591
v -0.016201 5.039123 0.491954
v -0.009137 5.052691 0.474494
v -0.004120 5.063777 0.469427
v 0.001036 5.071380 0.457417
v -0.744446 5.350729 0.275262
v -0.755323 5.341699 0.289082
v -0.756948 5.324797 0.298980
v -0.768557 5.315684 0.312905
v -0.770738 5.299088 0.322549
v -0.756440 5.313137 0.344480
v -0.754249 5.329865 0.334979
v -0.742591 5.338821 0.320931
v -0.740981 5.355861 0.311173
v -0.730080 5.364742 0.297222
v -0.724403 5.312423 0.358406
v -0.722004 5.329157 0.349000
v -0.710426 5.338080 0.334876
v -0.708659 5.355138 0.325205
v -0.697892 5.363995 0.311172
v -0.730528 4.609221 -0.531230
v -0.741539 4.594723 -0.523493
v -0.743062 4.583307 -0.507526
v -0.754884 4.568743 -0.499698
v -0.757038 4.557650 -0.483996
v -0.788452 4.572792 -0.481818
v -0.786500 4.583986 -0.497495
v -0.774603 4.598476 -0.505367
v -0.773233 4.609982 -0.521301
v -0.762092 4.624397 -0.529076
v -0.801244 4.593575 -0.464872
v -0.799291 4.604898 -0.480402
v -0.787454 4.619285 -0.488441
v -0.786057 4.630914 -0.504224
v -0.774953 4.645216 -0.512159
v -0.480700 5.212540 0.394167
v -0.260481 5.154826 0.437346
v -0.115832 5.078114 0.501010
v -0.046341 5.039622 0.533119
v -0.047805 5.063011 0.547320
v -0.113869 5.099857 0.516722
v -0.258304 5.173097 0.456226
v -0.478612 5.230829 0.413034
v -0.046426 5.075120 0.550999
v -0.112423 5.111088 0.521198
v -0.256647 5.182326 0.462529
v -0.476986 5.240062 0.419335
v -0.004116 5.123456 0.456362
v -0.072387 5.161109 0.424962
v -0.215292 5.240301 0.359011
v -0.435742 5.297972 0.315880
v -0.434564 5.314505 0.336356
v -0.214034 5.256813 0.379503
v -0.071286 5.181251 0.442145
v -0.003707 5.145066 0.472230
v -0.435011 5.319803 0.346263
v -0.214460 5.262105 0.389414
v -0.071636 5.188546 0.450226
v -0.004167 5.152990 0.479739
v -0.077068 4.328413 -0.259800
v -0.146564 4.367042 -0.292035
v -0.291215 4.444041 -0.355960
v -0.511434 4.501755 -0.399139
v -0.510864 4.484951 -0.419440
v -0.290556 4.427219 -0.376249
v -0.146117 4.353467 -0.315285
v -0.076310 4.316418 -0.284502
v -0.509866 4.479647 -0.429363
v -0.289526 4.421911 -0.386169
v -0.145299 4.350088 -0.326965
v -0.075556 4.313900 -0.296964
v -0.466476 4.587187 -0.477426
v -0.246026 4.529516 -0.434295
v -0.103114 4.450031 -0.368076
v -0.034846 4.412255 -0.336564
v -0.035919 4.398873 -0.359957
v -0.103528 4.434847 -0.389850
v -0.246286 4.510934 -0.452971
v -0.466816 4.568626 -0.496118
v -0.037000 4.392321 -0.368727
v -0.104508 4.427529 -0.397922
v -0.247340 4.501690 -0.459284
v -0.467891 4.559388 -0.502435
v -0.036881 5.085629 0.535659
v -0.104159 5.121111 0.506242
v -0.247407 5.192701 0.447195
v -0.465849 5.249936 0.404376
v -0.028102 5.104543 0.524041
v -0.094314 5.138946 0.495592
v -0.240162 5.208786 0.438182
v -0.460784 5.266551 0.394974
v -0.016201 5.123180 0.501273
v -0.087567 5.148031 0.481537
v -0.232228 5.219090 0.422963
v -0.450840 5.276328 0.380148
v -0.014774 5.127758 0.502781
v -0.081461 5.162533 0.473973
v -0.226071 5.235448 0.413748
v -0.446762 5.293197 0.370556
v -0.009917 5.135617 0.489889
v -0.076879 5.171205 0.460340
v -0.219456 5.245576 0.398737
v -0.438034 5.302779 0.355952
v -0.498485 4.495163 -0.438025
v -0.280043 4.437928 -0.395207
v -0.136868 4.365785 -0.335654
v -0.069490 4.330103 -0.306055
v -0.493663 4.506136 -0.453724
v -0.273041 4.448371 -0.410516
v -0.127225 4.377971 -0.352595
v -0.061433 4.343378 -0.323972
v -0.483476 4.521554 -0.462253
v -0.264864 4.464316 -0.419438
v -0.120214 4.392717 -0.360371
v -0.053502 4.359021 -0.332554
v -0.479642 4.532782 -0.478142
v -0.258951 4.475033 -0.434950
v -0.114347 4.401523 -0.374181
v -0.047605 4.367344 -0.345918
v -0.470670 4.548006 -0.486449
v -0.252092 4.490803 -0.443665
v -0.109514 4.415854 -0.381533
v -0.042516 4.380702 -0.352383
v -0.021269 4.632382 -0.106703
v -0.002195 5.199505 0.520013
v -0.098505 4.653965 -0.198444
v -0.077333 5.237304 0.488072
v -0.008290 4.906560 0.152914
v -0.085526 4.954128 0.136569
v -0.004274 5.053168 0.349197
v -0.080905 5.094870 0.314472
v 0.000622 5.182634 0.500207
v -0.074762 5.224474 0.464575
v -0.019999 4.630620 -0.109261
v -0.000992 5.221220 0.504388
v -0.097235 4.652203 -0.201002
v -0.076008 5.258768 0.472677
v -0.007020 4.904809 0.150368
v -0.084255 4.952377 0.134022
v -0.003175 5.056324 0.346589
v -0.079736 5.097926 0.311956
v 0.001870 5.181480 0.484073
v -0.073415 5.223113 0.448630
vn 0.5593 -0.7140 0.4212
vn 0.3582 -0.8683 0.3431
vn 0.7459 -0.5793 0.3286
vn 0.9351 -0.3424 0.0916
vn 0.9050 -0.4062 0.1261
vn 0.9301 -0.3443 0.1275
vn 0.8660 -0.4776 0.1480
vn 0.9321 -0.3168 0.1756
vn 0.9371 -0.3375 0.0894
vn 0.9457 -0.3156 0.0782
vn 0.9587 -0.2732 0.0788
vn 0.9403 -0.3285 0.0894
vn 0.9813 -0.1768 0.0766
vn 0.9605 -0.2514 0.1192
vn 0.9411 -0.3013 0.1537
vn 0.9830 -0.1320 0.1275
vn 0.9531 -0.1456 0.2654
vn 0.9646 -0.1415 0.2226
vn 0.9637 -0.1808 0.1963
vn 0.9449 -0.1613 0.2848
vn 0.9477 -0.1588 0.2770
vn 0.9448 -0.2200 0.2428
vn -0.3549 -0.7212 0.5949
vn -0.3594 -0.6962 0.6214
vn -0.3538 -0.7206 0.5962
vn -0.3555 -0.7754 0.5220
vn -0.3847 -0.6892 0.6140
vn -0.3704 -0.7225 0.5838
vn -0.3571 -0.7997 0.4826
vn 0.3482 0.7170 -0.6039
vn 0.3408 0.7241 -0.5996
vn 0.2809 0.6769 -0.6803
vn 0.2759 0.7024 -0.6561
vn 0.3386 0.7134 -0.6135
vn 0.2635 0.6737 -0.6905
vn 0.2503 0.7071 -0.6613
vn -0.3519 -0.6568 0.6670
vn -0.3469 -0.5905 0.7287
vn -0.3511 -0.6579 0.6662
vn -0.3587 -0.6800 0.6395
vn -0.3458 -0.5537 0.7575
vn -0.3670 -0.6451 0.6702
vn -0.3840 -0.6709 0.6344
vn 0.3456 0.6644 -0.6627
vn 0.2766 0.7184 -0.6383
vn 0.2837 0.7394 -0.6106
vn 0.3374 0.6607 -0.6705
vn 0.2511 0.7251 -0.6413
vn 0.2668 0.7498 -0.6055
vn 0.3361 0.6737 -0.6581
vn 0.9435 -0.2305 0.2381
vn 0.9445 -0.1622 0.2857
vn 0.9430 -0.1750 0.2832
vn -0.3757 -0.6212 0.6877
vn -0.3579 -0.5233 0.7733
vn -0.3486 -0.4885 0.7999
vn 0.3826 0.6225 -0.6827
vn 0.3702 0.5721 -0.7319
vn 0.3674 0.5906 -0.7185
vn -0.8853 0.4594 -0.0716
vn -0.8867 0.4561 -0.0760
vn -0.8103 0.5769 0.1031
vn -0.2694 0.7353 0.6219
vn -0.1291 0.7125 0.6896
vn -0.1152 0.7094 0.6953
vn -0.1718 -0.6083 -0.7749
vn -0.1854 -0.6018 -0.7768
vn -0.3239 -0.5263 -0.7862
vn -0.8355 -0.0078 -0.5494
vn -0.8995 0.1598 -0.4067
vn -0.8985 0.1557 -0.4105
vn -0.3812 -0.7369 0.5582
vn -0.3715 -0.8119 0.4503
vn -0.3648 -0.8343 0.4134
vn 0.3879 0.7299 -0.5628
vn 0.3803 0.7727 -0.5082
vn 0.3763 0.7621 -0.5269
vn -0.0284 -0.6673 -0.7443
vn 0.0284 0.6673 0.7443
vn 0.0992 -0.8998 0.4250
vn 0.6289 -0.7085 0.3200
vn 0.5978 -0.6939 0.4014
vn 0.6265 -0.7075 0.3271
vn 0.5950 -0.6925 0.4080
vn 0.9336 0.3366 -0.1228
vn 0.9986 0.0495 -0.0159
vn 0.9936 -0.1038 0.0451
vn 0.9576 -0.2524 0.1390
vn 0.9972 -0.0715 0.0200
vn 0.9583 -0.2653 0.1065
vn 0.9901 -0.1243 0.0645
vn 0.0160 -0.5100 0.8600
vn 0.6010 -0.5006 0.6230
vn 0.4891 0.6184 -0.6150
vn 0.9602 -0.2018 0.1930
vn 0.9632 -0.1701 0.2082
vn 0.9950 -0.0097 -0.0990
vn 0.9974 -0.0663 0.0280
vn 0.9168 0.1365 -0.3754
vn 0.9938 -0.0966 0.0549
vn 0.9906 -0.1162 0.0717
vn -0.3092 -0.7172 0.6245
vn -0.4233 -0.6940 0.5824
vn -0.4024 -0.7668 0.5001
vn -0.3217 -0.7992 0.5077
vn -0.4960 -0.6672 0.5557
vn -0.4511 -0.7676 0.4553
vn -0.3226 -0.8502 0.4159
vn 0.2706 0.6974 -0.6636
vn 0.2508 0.5991 -0.7603
vn 0.1829 0.6213 -0.7619
vn 0.1668 0.7038 -0.6905
vn 0.2345 0.5183 -0.8225
vn 0.1262 0.6044 -0.7866
vn 0.0886 0.7102 -0.6984
vn -0.3079 -0.6873 0.6579
vn -0.3122 -0.5799 0.7525
vn -0.3937 -0.5656 0.7246
vn -0.4209 -0.6386 0.6442
vn -0.3072 -0.4943 0.8132
vn -0.4404 -0.5194 0.7323
vn -0.4934 -0.6063 0.6237
vn 0.2718 0.7255 -0.6323
vn 0.1690 0.7569 -0.6313
vn 0.1914 0.8181 -0.5423
vn 0.2600 0.8115 -0.5233
vn 0.0911 0.7684 -0.6334
vn 0.1366 0.8429 -0.5204
vn 0.2495 0.8649 -0.4356
vn 0.7066 -0.5404 0.4569
vn 0.0458 -0.7447 0.6659
vn 0.9052 -0.4247 -0.0172
vn 0.9416 -0.2985 0.1561
vn 0.9362 -0.3000 0.1833
vn 0.9366 -0.2842 0.2048
vn 0.8973 -0.0090 0.4414
vn 0.8639 0.0417 0.5020
vn 0.9431 -0.1593 0.2918
vn 0.9567 -0.1729 0.2343
vn 0.9559 -0.2291 0.1838
vn 0.9611 -0.2175 0.1701
vn -0.5939 -0.5182 0.6154
vn -0.6067 -0.5198 0.6015
vn -0.5961 -0.4447 0.6685
vn -0.5628 -0.3856 0.7311
vn 0.8151 0.5440 0.1994
vn 0.2942 0.7209 -0.6276
vn 0.2950 0.7960 -0.5286
vn 0.2919 0.8488 -0.4408
vn -0.7423 0.6232 -0.2464
vn -0.7327 0.6419 -0.2261
vn -0.6438 0.7618 -0.0720
vn -0.1648 0.8913 0.4225
vn -0.0646 0.8663 0.4953
vn -0.0968 0.6983 0.7092
vn -0.1540 -0.6238 -0.7663
vn -0.1191 -0.3941 -0.9113
vn -0.2170 -0.3151 -0.9239
vn -0.6690 0.1802 -0.7211
vn -0.7465 0.3234 -0.5815
vn -0.7544 0.3419 -0.5603
vn -0.3002 -0.7215 0.6240
vn -0.3002 -0.7999 0.5196
vn -0.2968 -0.8531 0.4291
vn 0.6351 0.6101 -0.4738
vn 0.6830 0.5771 -0.4477
vn 0.6736 0.6293 -0.3876
vn 0.6046 0.6434 -0.4697
vn 0.2393 -0.9298 -0.2797
vn -0.2987 -0.6876 0.6618
vn 0.9374 -0.2722 0.2170
vn 0.7543 -0.6063 -0.2520
vn 0.6952 -0.6814 -0.2286
vn 0.6350 0.5112 -0.5791
vn 0.6854 0.4793 -0.5483
vn 0.0290 0.6673 0.7443
vn -0.0350 0.4988 0.8660
vn -0.2074 0.4963 0.8430
vn -0.0961 0.6980 0.7096
vn -0.9699 0.1640 0.1798
vn -0.9597 0.1829 0.2135
vn -0.9743 -0.1550 -0.1636
vn -0.9824 -0.1232 -0.1407
vn -0.9681 0.2075 0.1402
vn -0.8931 0.4496 -0.0137
vn -0.9083 0.0975 -0.4067
vn -0.9805 -0.0792 -0.1797
vn -0.7564 0.6111 -0.2331
vn -0.7687 0.3279 -0.5492
vn -0.9694 0.1857 0.1606
vn -0.9584 0.2061 0.1977
vn -0.9732 -0.1368 -0.1850
vn -0.9818 -0.1017 -0.1603
vn -0.7593 0.6210 -0.1943
vn -0.7716 0.5972 -0.2191
vn -0.7838 0.3131 -0.5363
vn -0.7736 0.2906 -0.5631
vn 0.0905 0.8004 0.5926
vn 0.0276 0.6633 0.7478
vn 0.0289 0.6681 0.7435
vn -0.1366 0.7073 0.6936
vn 0.0283 0.6653 0.7461
vn -0.0962 0.6982 0.7095
vn 0.0302 0.6707 0.7411
vn -0.1374 0.7050 0.6957
vn 0.7822 -0.4589 -0.4215
vn 0.7362 -0.6087 -0.2958
vn 0.7595 -0.5662 -0.3203
vn 0.7809 -0.4554 -0.4276
vn 0.7594 -0.5935 -0.2666
vn 0.8625 -0.4976 -0.0919
vn 0.7165 -0.6639 -0.2141
vn 0.8826 -0.4701 -0.0027
vn 0.7774 -0.5791 -0.2455
vn 0.8456 -0.5314 -0.0500
vn 0.9552 -0.2446 0.1666
vn 0.9606 -0.2299 0.1563
vn 0.9578 -0.2386 0.1603
vn 0.9581 -0.2236 0.1790
vn 0.9358 -0.2858 0.2062
vn 0.9359 -0.2745 0.2207
vn 0.9260 -0.3067 0.2201
vn 0.9272 -0.2902 0.2370
vn -0.9025 -0.3238 -0.2838
vn -0.6919 0.1495 -0.7064
vn -0.9019 -0.3078 -0.3032
vn -0.6798 0.1649 -0.7146
vn -0.9012 -0.2900 -0.3220
vn -0.2624 -0.7746 -0.5755
vn -0.1532 -0.6242 -0.7661
vn -0.3917 -0.7347 -0.5539
vn -0.1941 -0.6080 -0.7698
vn -0.2196 -0.3252 -0.9198
vn -0.1533 -0.6240 -0.7662
vn -0.3901 -0.7306 -0.5604
vn -0.1933 -0.6057 -0.7718
vn -0.2179 -0.3203 -0.9219
vn -0.3894 -0.7261 -0.5667
vn -0.3390 0.4843 0.8066
vn -0.1673 0.8861 0.4322
vn -0.3373 0.4911 0.8032
vn -0.1656 0.8887 0.4274
vn -0.3365 0.4978 0.7993
vn -0.8764 0.2809 0.3912
vn -0.6661 0.7446 -0.0422
vn -0.8755 0.3019 0.3773
vn -0.6543 0.7541 -0.0571
vn -0.8747 0.3226 0.3617
vn 0.9387 -0.2547 0.2322
vn 0.9282 -0.2714 0.2545
vn 0.9342 -0.2593 0.2450
vn 0.9567 -0.2037 0.2080
vn 0.9455 -0.2270 0.2336
vn 0.9244 -0.0764 0.3737
vn 0.9344 -0.1085 0.3393
vn 0.8943 -0.1034 0.4353
vn 0.8881 -0.0176 0.4593
vn 0.9547 -0.2620 0.1410
vn 0.9597 -0.2484 0.1318
vn 0.9549 -0.2636 0.1364
vn 0.9329 -0.3082 0.1862
vn 0.9254 -0.3233 0.1978
vn 0.9541 -0.2729 0.1232
vn 0.9592 -0.2605 0.1097
vn -0.0287 -0.6668 -0.7447
vn -0.0275 -0.6633 -0.7478
vn -0.0367 -0.6761 -0.7359
vn -0.0149 -0.6528 -0.7573
vn -0.0171 -0.6564 -0.7542
vn -0.0206 -0.6629 -0.7484
vn 0.0141 -0.6210 -0.7837
vn 0.1250 -0.4785 -0.8691
vn -0.0293 -0.6688 -0.7429
vn -0.0389 -0.6804 -0.7318
vn -0.0327 -0.6734 -0.7386
vn -0.1651 -0.8005 -0.5761
vn -0.0175 -0.6581 -0.7528
vn -0.0287 -0.6660 -0.7454
vn -0.0172 -0.6528 -0.7574
vn -0.0161 -0.6547 -0.7557
vn -0.0302 -0.6694 -0.7423
vn -0.0301 -0.6707 -0.7411
vn -0.0342 -0.6782 -0.7340
vn -0.0211 -0.6613 -0.7498
vn 0.0021 -0.6354 -0.7722
vn 0.0341 -0.5039 -0.8631
vn 0.0614 -0.5153 -0.8548
vn 0.0933 -0.5205 -0.8487
vn 0.0978 -0.5181 -0.8497
vn 0.8061 0.1323 0.5769
vn 0.8739 0.1718 0.4548
vn 0.1774 0.8057 0.5652
vn 0.0690 0.7116 0.6992
vn 0.0365 0.6790 0.7332
vn 0.0220 0.6501 0.7595
vn 0.0195 0.6590 0.7519
vn 0.0406 0.6815 0.7307
vn 0.5293 0.0023 0.8484
vn 0.6350 0.0432 0.7713
vn -0.1683 0.3580 0.9184
vn 0.0015 0.6336 0.7737
vn 0.0169 0.6542 0.7561
vn 0.8072 0.1316 0.5755
vn 0.0040 0.6515 0.7586
vn 0.1088 0.7669 0.6325
vn 0.0248 0.6712 0.7408
vn 0.0381 0.6812 0.7311
vn 0.7591 0.1457 0.6345
vn 0.0469 0.6868 0.7254
vn 0.0315 0.6716 0.7402
vn 0.0215 0.6562 0.7543
vn 0.7761 0.1808 0.6041
vn 0.1448 0.7774 0.6120
vn 0.1425 0.7795 0.6099
vn 0.1156 0.7904 0.6015
vn 0.7550 0.1061 0.6471
vn -0.0945 0.5240 0.8464
vn -0.0958 0.5199 0.8488
vn -0.0639 0.5075 0.8593
vn 0.2929 0.6913 -0.6605
vn 0.4482 0.6576 -0.6055
vn 0.4486 0.6555 -0.6075
vn 0.5783 0.5635 -0.5900
vn 0.5811 0.6243 -0.5221
vn -0.0913 -0.8038 -0.5878
vn -0.1193 -0.7959 -0.5936
vn -0.1495 -0.7846 -0.6017
vn -0.1473 -0.7829 -0.6045
vn -0.5961 -0.6620 0.4544
vn -0.6106 -0.6531 0.4479
vn -0.5701 -0.5406 0.6186
vn -0.5727 -0.6570 0.4903
vn -0.4374 -0.6287 0.6430
vn -0.4406 -0.6900 0.5742
vn 0.2865 0.6013 -0.7459
vn 0.2777 0.5200 -0.8078
vn 0.4402 0.5894 -0.6774
vn 0.4318 0.5168 -0.7393
vn 0.5706 0.6062 -0.5540
vn 0.5604 0.5538 -0.6159
vn 0.5642 0.6021 -0.5649
vn 0.7223 -0.3375 -0.6036
vn -0.5656 -0.7669 0.3031
vn -0.5455 -0.7730 0.3238
vn -0.5201 -0.8221 0.2314
vn -0.5154 -0.8396 0.1716
vn -0.4323 -0.7829 0.4474
vn -0.4185 -0.8361 0.3547
vn -0.6001 -0.7262 0.3356
vn 0.1161 0.0538 0.9918
vn 0.6050 0.5112 -0.6104
vn 0.5698 0.5932 -0.5688
vn 0.5645 0.6499 -0.5089
vn 0.5677 0.6036 -0.5598
vn 0.4445 0.7199 -0.5331
vn 0.4413 0.7741 -0.4538
vn 0.6791 0.4234 -0.5997
vn -0.2913 -0.5926 0.7510
vn -0.2819 -0.5087 0.8134
vn -0.4194 -0.5126 0.7492
vn -0.3997 -0.4266 0.8113
vn -0.5359 -0.3847 0.7515
vn -0.5038 -0.2928 0.8127
vn -0.5065 -0.2291 0.8312
vn -0.5760 -0.6595 0.4830
vn -0.5643 -0.7119 0.4180
vn -0.5760 -0.6596 0.4829
vn -0.6078 -0.6547 0.4495
vn -0.5973 -0.5947 0.5381
vn -0.5881 -0.6076 0.5338
vn -0.5882 -0.7109 0.3854
vn -0.5680 -0.6301 0.5295
vn -0.5675 -0.6309 0.5291
vn 0.5708 0.5296 -0.6275
vn 0.5684 0.5188 -0.6385
vn 0.5515 0.4523 -0.7009
vn 0.6307 0.5442 -0.5532
vn 0.5871 0.6034 -0.5396
vn 0.5967 0.5911 -0.5428
vn 0.5663 0.6189 -0.5444
vn 0.5665 0.6184 -0.5447
vn -0.5464 -0.7915 0.2738
vn 0.9948 0.0311 0.0969
vn 0.9951 -0.0076 0.0990
vn 0.9892 -0.1032 0.1037
vn -0.0499 0.5846 0.8097
vn -0.2790 0.7205 -0.6348
vn 0.4249 -0.6329 0.6472
vn -0.8584 0.4102 -0.3079
vn -0.9295 0.2993 -0.2157
vn -0.9310 0.2963 -0.2132
vn 0.9379 -0.2839 0.1996
vn 0.8682 -0.4034 0.2890
vn 0.9380 -0.2837 0.1994
vn -0.9949 0.0226 -0.0985
vn -0.9855 0.1285 -0.1111
vn -0.9955 -0.0140 -0.0938
vt 0.843125 0.320706
vt 0.843021 0.328183
vt 0.842975 0.326811
vt 0.843020 0.320706
vt 0.842772 0.331279
vt 0.842771 0.328183
vt 0.842771 0.320706
vt 0.832684 0.331279
vt 0.832435 0.328183
vt 0.832480 0.326811
vt 0.832684 0.328183
vt 0.832332 0.320706
vt 0.832434 0.320706
vt 0.832684 0.320706
vt 0.832332 0.017841
vt 0.832434 0.010365
vt 0.832480 0.011737
vt 0.832434 0.017841
vt 0.832684 0.007268
vt 0.832684 0.010365
vt 0.832684 0.017841
vt 0.020001 0.356872
vt 0.010940 0.356875
vt 0.012559 0.350769
vt 0.019951 0.349394
vt 0.007268 0.356874
vt 0.010902 0.349396
vt 0.019892 0.346295
vt 0.468816 0.356790
vt 0.468882 0.349314
vt 0.476378 0.350687
vt 0.478013 0.356792
vt 0.468979 0.346220
vt 0.478082 0.349317
vt 0.481765 0.356794
vt 0.020001 0.659725
vt 0.019949 0.667200
vt 0.012557 0.665831
vt 0.010940 0.659728
vt 0.019889 0.670295
vt 0.010900 0.667202
vt 0.007268 0.659728
vt 0.468816 0.659643
vt 0.478013 0.659645
vt 0.476380 0.665749
vt 0.468884 0.667120
vt 0.481765 0.659647
vt 0.478084 0.667123
vt 0.468982 0.670219
vt 0.843125 0.017841
vt 0.843020 0.017841
vt 0.842772 0.007268
vt 0.842771 0.010365
vt 0.842771 0.017841
vt 0.237524 0.659625
vt 0.237529 0.667101
vt 0.237520 0.670195
vt 0.252080 0.659619
vt 0.252069 0.667096
vt 0.252066 0.670195
vt 0.867770 0.014745
vt 0.857680 0.014745
vt 0.857660 0.007268
vt 0.867751 0.007268
vt 0.883207 0.008188
vt 0.893300 0.007268
vt 0.893242 0.016443
vt 0.883149 0.017465
vt 0.883155 0.465109
vt 0.893250 0.466142
vt 0.893244 0.475304
vt 0.883149 0.474373
vt 0.867751 0.325086
vt 0.857660 0.325086
vt 0.857680 0.317610
vt 0.867770 0.317610
vt 0.237525 0.356772
vt 0.237530 0.349295
vt 0.237520 0.346196
vt 0.252080 0.356766
vt 0.252068 0.349291
vt 0.252065 0.346196
vt 0.883149 0.248519
vt 0.893244 0.248552
vt 0.893300 0.233960
vt 0.883207 0.233983
vt 0.545569 0.982597
vt 0.545241 0.989700
vt 0.545269 0.988396
vt 0.545456 0.982597
vt 0.544481 0.992642
vt 0.544686 0.989700
vt 0.544785 0.982597
vt 0.514012 0.992642
vt 0.513265 0.989699
vt 0.513574 0.988396
vt 0.514222 0.989699
vt 0.512956 0.982597
vt 0.513475 0.982597
vt 0.514311 0.982597
vt 0.545569 0.694875
vt 0.545456 0.694875
vt 0.545268 0.689076
vt 0.545241 0.687773
vt 0.544785 0.694875
vt 0.544686 0.687773
vt 0.544481 0.684830
vt 0.512956 0.694875
vt 0.513265 0.687773
vt 0.513574 0.689076
vt 0.513475 0.694875
vt 0.514012 0.684830
vt 0.514222 0.687773
vt 0.514311 0.694875
vt 0.019816 0.694987
vt 0.010899 0.694990
vt 0.012657 0.689188
vt 0.019974 0.687881
vt 0.007268 0.694986
vt 0.011060 0.687881
vt 0.020011 0.684933
vt 0.438024 0.694912
vt 0.437866 0.687812
vt 0.445256 0.689119
vt 0.447033 0.694918
vt 0.437837 0.684877
vt 0.446873 0.687821
vt 0.450708 0.694925
vt 0.019816 0.982697
vt 0.019974 0.989797
vt 0.012657 0.988497
vt 0.010899 0.982701
vt 0.020011 0.992732
vt 0.011060 0.989796
vt 0.007268 0.982696
vt 0.438024 0.982623
vt 0.447033 0.982628
vt 0.445256 0.988428
vt 0.437866 0.989728
vt 0.450708 0.982636
vt 0.446873 0.989737
vt 0.437837 0.992676
vt 0.519106 0.991500
vt 0.519316 0.988580
vt 0.519404 0.981529
vt 0.539271 0.685972
vt 0.539476 0.688893
vt 0.539570 0.695943
vt 0.217265 0.982595
vt 0.222099 0.982605
vt 0.222116 0.989704
vt 0.217550 0.989695
vt 0.222094 0.992640
vt 0.217576 0.992630
vt 0.364597 0.982588
vt 0.364370 0.989693
vt 0.364327 0.992642
vt 0.610840 0.693001
vt 0.605631 0.691935
vt 0.605709 0.684831
vt 0.610914 0.685950
vt 0.751745 0.442420
vt 0.746555 0.444168
vt 0.746807 0.435029
vt 0.751997 0.433288
vt 0.775274 0.207616
vt 0.780490 0.209369
vt 0.780682 0.218494
vt 0.775466 0.216734
vt 0.610914 0.985637
vt 0.605709 0.986758
vt 0.605631 0.979656
vt 0.610840 0.978588
vt 0.092759 0.694935
vt 0.092991 0.687829
vt 0.093055 0.684880
vt 0.240408 0.694878
vt 0.236666 0.694890
vt 0.236662 0.687790
vt 0.240378 0.687778
vt 0.236652 0.684854
vt 0.240345 0.684843
vt 0.092759 0.982645
vt 0.519404 0.695943
vt 0.753906 0.011035
vt 0.748788 0.010936
vt 0.750190 0.007268
vt 0.755285 0.007337
vt 0.240408 0.982588
vt 0.236666 0.982600
vt 0.775051 0.359605
vt 0.780224 0.360431
vt 0.777292 0.433844
vt 0.772171 0.432496
vt 0.631018 0.693001
vt 0.636122 0.691934
vt 0.636122 0.979656
vt 0.631018 0.978588
vt 0.615836 0.691934
vt 0.615836 0.979656
vt 0.620950 0.693001
vt 0.620950 0.978588
vt 0.626000 0.691934
vt 0.626000 0.979656
vt 0.748941 0.361905
vt 0.754321 0.360581
vt 0.759541 0.360843
vt 0.757013 0.434240
vt 0.764777 0.359811
vt 0.762106 0.432695
vt 0.769994 0.360352
vt 0.767175 0.433843
vt 0.779337 0.011765
vt 0.774125 0.011728
vt 0.775463 0.007409
vt 0.780682 0.007321
vt 0.769104 0.011239
vt 0.770473 0.007368
vt 0.763991 0.011187
vt 0.765352 0.007400
vt 0.758918 0.010892
vt 0.760308 0.007292
vt 0.539570 0.981529
vt 0.534585 0.982597
vt 0.534585 0.694875
vt 0.529467 0.981529
vt 0.529466 0.695943
vt 0.524426 0.982597
vt 0.524426 0.694875
vt 0.636191 0.986757
vt 0.631086 0.985637
vt 0.626071 0.986757
vt 0.621020 0.985637
vt 0.615911 0.986758
vt 0.749999 0.208153
vt 0.755096 0.206803
vt 0.755291 0.215963
vt 0.750195 0.217343
vt 0.760118 0.208162
vt 0.760314 0.217360
vt 0.765163 0.207012
vt 0.765357 0.216165
vt 0.770282 0.208569
vt 0.770477 0.217746
vt 0.777036 0.443049
vt 0.771916 0.441670
vt 0.766918 0.443056
vt 0.761851 0.441862
vt 0.756758 0.443431
vt 0.631086 0.685950
vt 0.636191 0.684830
vt 0.626071 0.684830
vt 0.621020 0.685950
vt 0.615911 0.684831
vt 0.519315 0.688892
vt 0.524335 0.687773
vt 0.529376 0.688892
vt 0.534490 0.687773
vt 0.519106 0.685972
vt 0.524123 0.684830
vt 0.529167 0.685972
vt 0.534282 0.684830
vt 0.539476 0.988580
vt 0.534490 0.989700
vt 0.529376 0.988580
vt 0.524335 0.989700
vt 0.539271 0.991500
vt 0.534282 0.992642
vt 0.529167 0.991500
vt 0.524123 0.992642
vt 0.752193 0.133883
vt 0.757276 0.134642
vt 0.751716 0.071892
vt 0.756792 0.072053
vt 0.752908 0.030415
vt 0.757940 0.030264
vt 0.762470 0.134099
vt 0.762001 0.072096
vt 0.763067 0.030600
vt 0.767732 0.135144
vt 0.767259 0.072570
vt 0.768230 0.030734
vt 0.772928 0.134881
vt 0.772474 0.072921
vt 0.773328 0.031348
vt 0.778334 0.136217
vt 0.777877 0.073719
vt 0.778606 0.031772
vt 0.766925 0.233043
vt 0.771922 0.233100
vt 0.773302 0.236798
vt 0.768316 0.236643
vt 0.774306 0.256172
vt 0.769299 0.256010
vt 0.775510 0.297636
vt 0.770460 0.297785
vt 0.761857 0.233153
vt 0.767859 0.236940
vt 0.764149 0.256347
vt 0.765227 0.297829
vt 0.756762 0.233109
vt 0.758132 0.236980
vt 0.759012 0.256469
vt 0.759995 0.298292
vt 0.751748 0.233152
vt 0.753087 0.237470
vt 0.753890 0.257084
vt 0.754756 0.298643
vt 0.746555 0.233052
vt 0.747900 0.237497
vt 0.748637 0.257496
vt 0.749379 0.299429
vt 0.777041 0.233029
vt 0.778444 0.236697
vt 0.779471 0.256119
vt 0.780695 0.297906
vt 0.364597 0.694878
vt 0.301993 0.982576
vt 0.301993 0.694866
vt 0.260073 0.982582
vt 0.260073 0.694871
vt 0.747044 0.134711
vt 0.746555 0.072163
vt 0.747766 0.030363
vt 0.217270 0.694885
vt 0.222100 0.694894
vt 0.197234 0.982599
vt 0.197234 0.694888
vt 0.155208 0.982612
vt 0.155208 0.694902
vt 0.364370 0.687778
vt 0.364327 0.684842
vt 0.301743 0.687766
vt 0.301693 0.684830
vt 0.259861 0.687771
vt 0.259815 0.684836
vt 0.222117 0.687789
vt 0.217552 0.687779
vt 0.217577 0.684830
vt 0.222095 0.684840
vt 0.197465 0.687782
vt 0.197528 0.684833
vt 0.155464 0.687796
vt 0.155537 0.684847
vt 0.236662 0.989705
vt 0.240378 0.989694
vt 0.240345 0.992642
vt 0.236652 0.992654
vt 0.259861 0.989687
vt 0.259815 0.992636
vt 0.301743 0.989681
vt 0.301693 0.992630
vt 0.092991 0.989744
vt 0.093055 0.992680
vt 0.155464 0.989711
vt 0.155537 0.992646
vt 0.197465 0.989698
vt 0.197528 0.992633
vt 0.817796 0.501641
vt 0.817754 0.508965
vt 0.795644 0.508747
vt 0.795687 0.501423
vt 0.817796 0.265645
vt 0.817456 0.387145
vt 0.795375 0.387091
vt 0.795716 0.265591
vt 0.817311 0.447899
vt 0.795230 0.447844
vt 0.795230 0.243586
vt 0.817319 0.243368
vt 0.817484 0.250837
vt 0.795395 0.251056
vt 0.795230 0.007323
vt 0.817328 0.007268
vt 0.817631 0.128771
vt 0.795532 0.128826
vt 0.817776 0.189576
vt 0.795677 0.189631
vt 0.907836 0.545768
vt 0.907836 0.523704
vt 0.908916 0.523690
vt 0.908916 0.545754
vt 0.907836 0.250643
vt 0.910676 0.243274
vt 0.911741 0.243515
vt 0.908843 0.251032
vt 0.908843 0.560303
vt 0.908843 0.582382
vt 0.907836 0.582390
vt 0.907836 0.560311
vt 0.912202 0.265590
vt 0.909694 0.387068
vt 0.908615 0.387050
vt 0.911122 0.265567
vt 0.910814 0.128762
vt 0.907836 0.007294
vt 0.908915 0.007268
vt 0.911893 0.128740
vt 0.908916 0.447817
vt 0.907836 0.447850
vt 0.911828 0.189508
vt 0.912908 0.189536
vt 0.909339 0.501404
vt 0.908277 0.501649
vt 0.912202 0.508763
vt 0.911197 0.509155
s 1
usemtl Book
f 1/1/1 4/2/2 5/3/2 7/4/3
f 2/5/4 6/6/5 5/3/6 4/2/7
f 3/7/8 7/4/3 5/3/6 6/6/5
f 8/8/9 11/9/10 12/10/11 14/11/12
f 9/12/13 13/13/14 12/10/11 11/9/10
f 10/14/15 14/11/12 12/10/11 13/13/14
f 18/15/16 21/16/17 22/17/18 24/18/19
f 19/19/20 23/20/21 22/17/18 21/16/17
f 20/21/22 24/18/19 22/17/18 23/20/21
f 25/22/23 28/23/24 29/24/25 31/25/26
f 26/26/27 30/27/28 29/24/25 28/23/24
f 27/28/29 31/25/26 29/24/25 30/27/28
f 32/29/30 35/30/31 36/31/32 38/32/33
f 33/33/34 37/34/35 36/31/32 35/30/31
f 34/35/36 38/32/33 36/31/32 37/34/35
f 39/36/37 42/37/38 43/38/39 45/39/40
f 40/40/41 44/41/42 43/38/39 42/37/38
f 41/42/43 45/39/40 43/38/39 44/41/42
f 46/43/44 49/44/45 50/45/46 52/46/47
f 47/47/48 51/48/49 50/45/46 49/44/45
f 48/49/50 52/46/47 50/45/46 51/48/49
f 16/50/51 1/1/1 7/4/3
f 16/51/51 7/4/3 3/7/8
f 2/5/4 8/8/9 14/11/12 6/6/5
f 6/6/5 14/11/12 10/14/15 3/7/8
f 9/12/13 18/15/16 24/18/19 13/13/14
f 13/13/14 24/18/19 20/21/22 10/14/15
f 19/19/20 15/52/52 17/53/53 23/20/21
f 23/20/21 17/53/53 16/54/51 20/21/22
f 39/36/37 16/55/54 17/56/55 42/37/38
f 42/37/38 17/56/55 15/57/56 40/40/41
f 18/58/57 46/43/44 52/46/47 21/59/58
f 21/59/58 52/46/47 48/49/50 19/60/59
f 47/61/60 41/62/61 44/63/62 51/64/62
f 51/65/63 44/66/63 40/67/64 48/68/65
f 25/22/23 39/36/37 45/39/40 28/23/24
f 28/23/24 45/39/40 41/42/43 26/26/27
f 46/43/44 32/29/30 38/32/33 49/44/45
f 49/44/45 38/32/33 34/35/36 47/47/48
f 33/69/66 27/70/67 30/71/68 37/72/68
f 37/73/69 30/74/69 26/75/70 34/76/71
f 1/77/72 25/22/23 31/25/26 4/78/73
f 4/78/73 31/25/26 27/28/29 2/79/74
f 32/29/30 9/80/75 11/81/76 35/30/31
f 35/30/31 11/81/76 8/82/77 33/33/34
f 16/55/54 39/36/37 25/22/23 1/77/72
f 3/7/8 10/14/15 20/21/22 16/54/51
f 27/70/67 33/69/66 8/83/78 2/84/78
f 46/43/44 18/58/57 9/80/75 32/29/30
f 15/85/79 19/86/79 48/68/65 40/67/64
f 41/62/61 47/61/60 34/76/71 26/75/70
f 53/87/80 56/88/80 57/89/80 59/90/80
f 54/91/81 58/92/82 57/89/83 56/88/81
f 55/93/84 59/90/84 57/89/83 58/92/82
f 60/94/85 63/95/85 64/96/86 66/97/87
f 61/98/88 65/99/89 64/96/86 63/95/90
f 62/100/91 66/97/87 64/96/86 65/99/89
f 67/101/92 70/102/92 71/103/92 73/104/92
f 68/105/93 72/106/93 71/103/93 70/102/93
f 69/107/94 73/104/94 71/103/94 72/106/94
f 74/108/95 77/109/96 78/110/97 80/111/98
f 75/112/99 79/113/100 78/110/97 77/109/99
f 76/114/101 80/111/98 78/110/97 79/113/100
f 81/115/102 84/116/103 85/117/104 87/118/105
f 82/119/106 86/120/107 85/117/104 84/116/103
f 83/121/108 87/118/105 85/117/104 86/120/107
f 88/122/109 91/123/110 92/124/111 94/125/112
f 89/126/113 93/127/114 92/124/111 91/123/110
f 90/128/115 94/125/112 92/124/111 93/127/114
f 95/129/116 98/130/117 99/131/118 101/132/119
f 96/133/120 100/134/121 99/131/118 98/130/117
f 97/135/122 101/132/119 99/131/118 100/134/121
f 102/136/123 105/137/124 106/138/125 108/139/126
f 103/140/127 107/141/128 106/138/125 105/137/124
f 104/142/129 108/139/126 106/138/125 107/141/128
f 67/101/130 53/87/130 59/90/130 70/102/130
f 70/102/131 59/90/131 55/93/131 68/105/131
f 113/143/132 60/94/133 66/97/87 114/144/134
f 114/144/134 66/97/87 62/100/91 119/145/135
f 61/98/88 74/108/95 80/111/98 65/99/89
f 65/99/89 80/111/98 76/114/101 62/100/91
f 128/146/136 69/107/137 72/106/138 129/147/139
f 129/147/139 72/106/138 68/105/140 134/148/141
f 172/149/142 67/150/143 73/151/144 173/152/145
f 173/152/146 73/151/146 69/153/146 177/154/146
f 184/155/147 102/136/123 108/139/126 185/156/148
f 185/156/148 108/139/126 104/142/129 189/157/149
f 143/158/150 97/159/151 100/160/152 144/161/152
f 144/162/153 100/163/153 96/164/154 149/165/155
f 81/115/102 95/129/116 101/132/119 84/116/103
f 84/116/103 101/132/119 97/135/122 82/119/106
f 102/136/123 88/122/109 94/125/112 105/137/124
f 105/137/124 94/125/112 90/128/115 103/140/127
f 158/166/156 83/167/157 86/168/158 159/169/158
f 159/170/159 86/171/159 82/172/160 164/173/161
f 196/174/162 81/115/102 87/118/105 197/175/163
f 197/175/163 87/118/105 83/121/108 201/176/164
f 208/177/165 61/178/166 63/179/167 209/180/168
f 209/180/169 63/179/169 60/181/169 213/182/169
f 169/183/170 95/129/116 81/115/102 196/174/162
f 119/145/135 62/100/91 76/114/101 138/184/171
f 256/185/172 213/186/173 60/187/173 113/188/132
f 181/189/174 74/190/175 61/178/166 208/177/165
f 236/191/176 189/192/177 104/193/178 153/194/179
f 139/195/180 103/196/181 90/197/182 168/198/183
f 97/159/151 143/158/150 164/173/161 82/172/160
f 143/158/184 142/199/185 165/200/186 164/173/187
f 142/199/185 141/201/188 166/202/189 165/200/186
f 141/201/190 140/203/191 167/204/192 166/202/193
f 140/203/194 139/195/195 168/198/196 167/204/197
f 180/205/198 220/206/199 149/165/155 96/164/154
f 220/206/199 224/207/200 150/208/201 149/165/155
f 224/207/200 228/209/202 151/210/203 150/208/201
f 228/209/202 232/211/204 152/212/205 151/210/203
f 232/211/204 236/191/176 153/194/179 152/212/205
f 204/213/206 240/214/207 109/215/208 54/216/209
f 240/214/207 244/217/210 110/218/211 109/215/208
f 244/217/210 248/219/212 111/220/213 110/218/211
f 248/219/212 252/221/214 112/222/215 111/220/213
f 252/221/214 256/185/172 113/188/132 112/222/215
f 55/93/216 123/223/217 134/148/141 68/105/140
f 123/223/217 122/224/218 135/225/219 134/148/141
f 122/224/218 121/226/220 136/227/221 135/225/219
f 121/226/220 120/228/222 137/229/223 136/227/221
f 120/228/222 119/145/135 138/184/171 137/229/223
f 93/230/224 163/231/224 168/198/183 90/197/182
f 163/231/225 162/232/225 167/204/197 168/198/196
f 162/232/226 161/233/226 166/202/193 167/204/192
f 161/233/227 160/234/227 165/200/186 166/202/189
f 160/234/228 159/170/228 164/173/187 165/200/186
f 89/235/229 154/236/230 163/237/231 93/238/231
f 154/236/230 155/239/232 162/240/233 163/237/233
f 155/239/232 156/241/234 161/242/235 162/240/235
f 156/241/234 157/243/236 160/244/237 161/242/237
f 157/243/236 158/166/156 159/169/238 160/244/238
f 107/245/239 148/246/239 153/194/179 104/193/178
f 148/246/240 147/247/240 152/212/205 153/194/179
f 147/247/241 146/248/241 151/210/203 152/212/205
f 146/248/242 145/249/242 150/208/201 151/210/203
f 145/249/243 144/162/243 149/165/155 150/208/201
f 103/196/181 139/195/180 148/250/244 107/251/244
f 139/195/195 140/203/194 147/252/245 148/250/245
f 140/203/191 141/201/190 146/253/246 147/252/246
f 141/201/188 142/199/185 145/254/247 146/253/247
f 142/199/185 143/158/184 144/161/248 145/254/248
f 79/113/100 133/255/249 138/184/171 76/114/101
f 133/255/249 132/256/250 137/229/223 138/184/171
f 132/256/250 131/257/251 136/227/221 137/229/223
f 131/257/251 130/258/252 135/225/219 136/227/221
f 130/258/252 129/147/139 134/148/141 135/225/219
f 75/112/253 124/259/254 133/255/249 79/113/100
f 124/259/254 125/260/255 132/256/250 133/255/249
f 125/260/255 126/261/256 131/257/251 132/256/250
f 126/261/256 127/262/257 130/258/252 131/257/251
f 127/262/257 128/146/136 129/147/139 130/258/252
f 58/92/258 118/263/259 123/223/217 55/93/216
f 118/263/259 117/264/260 122/224/218 123/223/217
f 117/264/260 116/265/261 121/226/220 122/224/218
f 116/265/261 115/266/262 120/228/222 121/226/220
f 115/266/262 114/144/134 119/145/135 120/228/222
f 54/91/263 109/267/264 118/263/259 58/92/258
f 109/267/264 110/268/211 117/264/260 118/263/259
f 110/268/211 111/269/213 116/265/261 117/264/260
f 111/269/213 112/270/215 115/266/262 116/265/261
f 112/270/215 113/143/132 114/144/134 115/266/262
f 155/239/232 154/236/230 253/271/265 249/272/266
f 249/272/266 253/271/265 254/273/267 250/274/268
f 250/274/268 254/273/267 255/275/269 251/276/270
f 251/276/270 255/275/269 256/185/271 252/221/272
f 156/241/234 155/239/232 249/272/266 245/277/273
f 245/277/273 249/272/266 250/274/268 246/278/274
f 246/278/274 250/274/268 251/276/270 247/279/275
f 247/279/275 251/276/270 252/221/276 248/219/277
f 157/243/236 156/241/234 245/277/273 241/280/278
f 241/280/278 245/277/273 246/278/274 242/281/279
f 242/281/279 246/278/274 247/279/275 243/282/280
f 243/282/280 247/279/275 248/219/277 244/217/281
f 158/166/156 157/243/236 241/280/278 237/283/282
f 237/283/282 241/280/278 242/281/279 238/284/283
f 238/284/283 242/281/279 243/282/280 239/285/284
f 239/285/284 243/282/280 244/217/281 240/214/285
f 83/167/157 158/166/156 237/283/282 201/286/286
f 201/286/286 237/283/282 238/284/283 202/287/287
f 202/287/287 238/284/283 239/285/284 203/288/288
f 203/288/288 239/285/284 240/214/285 204/213/289
f 125/289/255 124/290/254 233/291/290 229/292/291
f 229/292/292 233/291/293 234/293/294 230/294/295
f 230/294/295 234/293/294 235/295/296 231/296/297
f 231/296/297 235/295/296 236/191/176 232/211/204
f 126/297/256 125/289/298 229/292/298 225/298/299
f 225/298/300 229/292/300 230/294/295 226/299/301
f 226/299/301 230/294/295 231/296/297 227/300/302
f 227/300/302 231/296/297 232/211/204 228/209/202
f 127/301/257 126/297/256 225/298/299 221/302/303
f 221/302/304 225/298/305 226/299/301 222/303/306
f 222/303/306 226/299/301 227/300/302 223/304/307
f 223/304/307 227/300/302 228/209/202 224/207/200
f 128/305/136 127/301/257 221/302/303 217/306/308
f 217/306/309 221/302/304 222/303/306 218/307/310
f 218/307/310 222/303/306 223/304/307 219/308/311
f 219/308/311 223/304/307 224/207/200 220/206/199
f 69/309/137 128/305/136 217/306/308 177/310/312
f 177/310/313 217/306/309 218/307/310 178/311/314
f 178/311/314 218/307/310 219/308/311 179/312/315
f 179/312/315 219/308/311 220/206/199 180/205/198
f 124/290/254 75/313/316 192/314/316 233/291/290
f 233/291/293 192/314/317 191/315/318 234/293/294
f 234/293/294 191/315/318 190/316/319 235/295/296
f 235/295/296 190/316/319 189/192/177 236/191/176
f 102/136/123 184/155/147 205/317/320 88/122/109
f 184/155/147 183/318/321 206/319/322 205/317/320
f 183/318/321 182/320/323 207/321/324 206/319/322
f 182/320/323 181/189/174 208/177/165 207/321/324
f 154/236/230 89/235/229 216/322/325 253/271/265
f 253/271/265 216/322/325 215/323/326 254/273/267
f 254/273/267 215/323/326 214/324/327 255/275/269
f 255/275/269 214/324/327 213/186/328 256/185/271
f 67/150/143 172/149/142 193/325/329 53/326/330
f 172/149/142 171/327/331 194/328/332 193/325/329
f 171/327/331 170/329/333 195/330/334 194/328/332
f 170/329/333 169/183/170 196/174/162 195/330/334
f 91/123/110 212/331/335 216/332/336 89/126/113
f 212/331/335 211/333/337 215/334/338 216/332/336
f 211/333/337 210/335/339 214/336/340 215/334/338
f 210/335/339 209/180/168 213/182/341 214/336/340
f 88/122/109 205/317/320 212/331/335 91/123/110
f 205/317/320 206/319/322 211/333/337 212/331/335
f 206/319/322 207/321/324 210/335/339 211/333/337
f 207/321/324 208/177/165 209/180/168 210/335/339
f 56/337/342 200/338/342 204/339/206 54/340/209
f 200/338/343 199/341/344 203/342/345 204/339/346
f 199/341/344 198/343/347 202/344/348 203/342/345
f 198/343/347 197/175/163 201/176/164 202/344/348
f 53/326/330 193/325/329 200/338/343 56/337/349
f 193/325/329 194/328/332 199/341/344 200/338/343
f 194/328/332 195/330/334 198/343/347 199/341/344
f 195/330/334 196/174/162 197/175/163 198/343/347
f 77/345/350 188/346/350 192/347/350 75/348/350
f 188/346/351 187/349/352 191/350/353 192/347/354
f 187/349/352 186/351/355 190/352/356 191/350/353
f 186/351/355 185/156/148 189/157/149 190/352/356
f 74/190/175 181/189/174 188/346/351 77/345/357
f 181/189/174 182/320/323 187/349/352 188/346/351
f 182/320/323 183/318/321 186/351/355 187/349/352
f 183/318/321 184/155/147 185/156/148 186/351/355
f 98/130/117 176/353/358 180/354/359 96/133/120
f 176/353/358 175/355/360 179/356/361 180/354/359
f 175/355/360 174/357/362 178/358/363 179/356/361
f 174/357/362 173/152/145 177/154/364 178/358/363
f 95/129/116 169/183/170 176/353/358 98/130/117
f 169/183/170 170/329/333 175/355/360 176/353/358
f 170/329/333 171/327/331 174/357/362 175/355/360
f 171/327/331 172/149/142 173/152/145 174/357/362
f 265/359/365 258/360/366 260/361/366 266/362/367
f 257/363/368 261/364/369 262/365/370 259/366/371
f 261/364/369 263/367/372 264/368/373 262/365/370
f 263/367/372 265/359/365 266/362/367 264/368/373
f 275/369/374 276/370/375 270/371/376 268/372/376
f 267/373/377 269/374/377 272/375/378 271/376/379
f 271/376/379 272/375/378 274/377/380 273/378/381
f 273/378/381 274/377/380 276/370/375 275/369/374
f 257/379/368 259/380/371 269/381/382 267/382/382
f 258/383/383 265/384/384 275/385/385 268/386/383
f 260/387/386 258/388/386 268/389/386 270/390/386
f 259/391/387 262/392/387 272/393/387 269/394/387
f 261/395/388 257/396/388 267/397/388 271/398/388
f 262/392/389 264/399/390 274/400/391 272/393/389
f 263/401/392 261/395/393 271/398/393 273/402/394
f 264/399/390 266/403/395 276/404/396 274/400/391
f 265/384/384 263/401/392 273/402/394 275/385/385
f 266/403/395 260/405/397 270/406/397 276/404/396
