# Blender 5.0.1
# www.blender.org
mtllib window.mtl
o Cylinder
v 0.291490 3.355379 -0.505696
v 0.291490 3.369701 -0.471629
v 0.311491 3.349640 -0.483240
v 0.291490 3.365463 -0.489892
v 0.303038 3.363004 -0.488858
v 0.305633 3.363812 -0.477456
v 0.305633 3.355423 -0.497412
v -0.291624 3.375358 -0.473985
v -0.311490 3.397511 -0.503365
v -0.291624 3.361020 -0.508091
v -0.305672 3.382770 -0.488655
v -0.303013 3.377168 -0.494812
v -0.305672 3.376688 -0.503123
v -0.291231 3.371069 -0.492248
v 0.291491 3.360648 0.493485
v 0.311491 3.354672 0.471090
v 0.291491 3.374610 0.459269
v 0.305633 3.360605 0.485201
v 0.303038 3.368095 0.476567
v 0.305633 3.368783 0.465157
v 0.291491 3.370564 0.477574
v -0.291624 3.380291 0.461564
v -0.291624 3.366313 0.495819
v -0.311490 3.402753 0.490709
v -0.291231 3.376195 0.479872
v -0.303012 3.382321 0.482372
v -0.305672 3.381928 0.490687
v -0.305672 3.387858 0.476156
v 0.291491 2.671808 1.169522
v 0.311491 2.683418 1.149461
v 0.291491 2.705875 1.155200
v 0.305633 2.674700 1.162436
v 0.303038 2.688781 1.162218
v 0.305633 2.698789 1.152309
v 0.291491 2.690579 1.166494
v -0.291624 2.708269 1.160841
v -0.291624 2.674163 1.175179
v -0.311490 2.703543 1.197332
v -0.291231 2.692427 1.170890
v -0.303012 2.694991 1.176989
v -0.305672 2.688834 1.182591
v -0.305672 2.703302 1.176509
v 0.291490 1.706694 1.160470
v 0.311490 1.729089 1.154493
v 0.291490 1.740910 1.174431
v 0.305633 1.714978 1.160426
v 0.303038 1.723612 1.167916
v 0.305633 1.735021 1.168604
v 0.291490 1.722604 1.170386
v -0.291624 1.738615 1.180113
v -0.291624 1.704360 1.166135
v -0.311490 1.709470 1.202574
v -0.291231 1.720307 1.176017
v -0.303013 1.717807 1.182142
v -0.305672 1.709492 1.181750
v -0.305672 1.724023 1.187679
v 0.291490 1.044978 0.505696
v 0.291490 1.030656 0.471629
v 0.311490 1.050718 0.483240
v 0.291490 1.034895 0.489892
v 0.303038 1.037354 0.488858
v 0.305633 1.036545 0.477456
v 0.305633 1.044935 0.497412
v -0.291624 1.039338 0.508091
v -0.291624 1.025000 0.473985
v -0.311491 1.002847 0.503365
v -0.291231 1.029289 0.492248
v -0.303013 1.023190 0.494812
v -0.305672 1.017588 0.488655
v -0.305672 1.023670 0.503123
v 0.291490 1.025748 -0.459269
v 0.291490 1.039709 -0.493485
v 0.311490 1.045685 -0.471090
v 0.291490 1.029793 -0.477574
v 0.303038 1.032263 -0.476567
v 0.305633 1.039753 -0.485201
v 0.305633 1.031574 -0.465157
v -0.291624 1.020066 -0.461564
v -0.291624 1.034044 -0.495819
v -0.311491 0.997605 -0.490709
v -0.291231 1.024162 -0.479872
v -0.303013 1.018037 -0.482372
v -0.305672 1.018429 -0.490687
v -0.305672 1.012500 -0.476156
v 0.291490 1.694482 -1.155200
v 0.291490 1.728549 -1.169522
v 0.311490 1.716939 -1.149461
v 0.291490 1.710287 -1.165284
v 0.303038 1.711321 -1.162825
v 0.305633 1.722723 -1.163633
v 0.305633 1.702767 -1.155244
v -0.291624 1.692088 -1.160841
v -0.291624 1.726194 -1.175179
v -0.311491 1.696814 -1.197332
v -0.291231 1.707930 -1.170890
v -0.303013 1.705366 -1.176989
v -0.305672 1.711524 -1.182591
v -0.305672 1.697056 -1.176509
v 0.291490 2.659448 -1.174431
v 0.291490 2.693664 -1.160470
v 0.311490 2.671268 -1.154493
v 0.291490 2.677753 -1.170386
v 0.303038 2.676745 -1.167916
v 0.305633 2.685380 -1.160426
v 0.305633 2.665336 -1.168604
v -0.291624 2.661743 -1.180113
v -0.291624 2.695998 -1.166135
v -0.311490 2.690888 -1.202574
v -0.291231 2.680051 -1.176017
v -0.303013 2.682550 -1.182142
v -0.305672 2.690866 -1.181750
v -0.305672 2.676335 -1.187679
v 0.291490 3.571782 -0.556585
v 0.291490 3.557460 -0.590652
v 0.311491 3.591633 -0.584975
v 0.291490 3.567544 -0.574848
v 0.303038 3.572305 -0.576849
v 0.305633 3.571633 -0.584869
v 0.305633 3.577565 -0.570758
v 0.291491 3.563614 0.576305
v 0.291491 3.577576 0.542089
v 0.311491 3.597725 0.570267
v 0.291491 3.573531 0.560395
v 0.303038 3.578313 0.562346
v 0.305633 3.583509 0.556200
v 0.305633 3.577725 0.570373
v 0.291491 2.756764 1.371603
v 0.291491 2.790831 1.357281
v 0.311491 2.785154 1.391454
v 0.291491 2.775026 1.367365
v 0.303038 2.777028 1.372126
v 0.305633 2.785048 1.371454
v 0.305633 2.770937 1.377387
v 0.291490 1.623874 1.363436
v 0.291490 1.658090 1.377397
v 0.311490 1.629912 1.397546
v 0.291490 1.639784 1.373352
v 0.303038 1.637833 1.378134
v 0.305633 1.643979 1.383330
v 0.305633 1.629806 1.377547
v 0.291490 0.828575 0.556585
v 0.291490 0.842897 0.590652
v 0.311490 0.808725 0.584975
v 0.291490 0.832814 0.574848
v 0.303038 0.828053 0.576849
v 0.305633 0.828725 0.584869
v 0.305633 0.822792 0.570758
v 0.291490 0.822781 -0.542089
v 0.311490 0.802633 -0.570267
v 0.291490 0.836743 -0.576305
v 0.305633 0.816849 -0.556200
v 0.303038 0.822045 -0.562346
v 0.305633 0.822632 -0.570373
v 0.291490 0.826827 -0.560395
v 0.291490 1.609526 -1.357281
v 0.311490 1.615204 -1.391454
v 0.291490 1.643594 -1.371603
v 0.305633 1.615310 -1.371454
v 0.303038 1.623330 -1.372126
v 0.305633 1.629421 -1.377387
v 0.291490 1.625331 -1.367365
v 0.291490 2.742268 -1.377397
v 0.311490 2.770446 -1.397546
v 0.291490 2.776484 -1.363436
v 0.305633 2.756379 -1.383330
v 0.303038 2.762525 -1.378134
v 0.305633 2.770551 -1.377547
v 0.291490 2.760573 -1.373352
v -0.311490 3.622157 0.580236
v -0.291490 3.628133 0.602632
v -0.291490 3.642095 0.568415
v -0.305633 3.628089 0.594347
v -0.303038 3.635580 0.585714
v -0.291490 3.638049 0.586721
v -0.305633 3.636268 0.574304
v -0.291490 3.636020 -0.583591
v -0.291490 3.621698 -0.617658
v -0.311490 3.615958 -0.595201
v -0.291490 3.631781 -0.601853
v -0.303038 3.629323 -0.600820
v -0.305633 3.621741 -0.609374
v -0.305633 3.630131 -0.589418
v -0.311490 2.795380 1.415779
v -0.291490 2.783770 1.435841
v -0.291490 2.817837 1.421519
v -0.305633 2.789597 1.429952
v -0.303038 2.800998 1.429143
v -0.291490 2.802032 1.431602
v -0.305633 2.809553 1.421562
v -0.311490 1.619942 1.421978
v -0.291490 1.597547 1.427954
v -0.291490 1.631763 1.441916
v -0.305633 1.605832 1.427910
v -0.303038 1.614465 1.435401
v -0.291490 1.613457 1.437871
v -0.305633 1.625875 1.436089
v -0.311491 0.784399 0.595201
v -0.291490 0.764338 0.583591
v -0.291490 0.778660 0.617658
v -0.305633 0.770227 0.589418
v -0.303038 0.771035 0.600820
v -0.291490 0.768577 0.601853
v -0.305633 0.778616 0.609374
v -0.311491 0.778201 -0.580236
v -0.291491 0.772225 -0.602632
v -0.291491 0.758263 -0.568415
v -0.305633 0.772268 -0.594347
v -0.303038 0.764778 -0.585714
v -0.291491 0.762308 -0.586721
v -0.305633 0.764090 -0.574304
v -0.311491 1.604978 -1.415779
v -0.291491 1.616588 -1.435841
v -0.291491 1.582521 -1.421519
v -0.305633 1.610761 -1.429952
v -0.303038 1.599359 -1.429143
v -0.291491 1.598326 -1.431602
v -0.305633 1.590805 -1.421562
v -0.311490 2.780415 -1.421978
v -0.291490 2.802811 -1.427954
v -0.291490 2.768594 -1.441916
v -0.305633 2.794526 -1.427910
v -0.303038 2.785892 -1.435401
v -0.291490 2.786900 -1.437871
v -0.305633 2.774483 -1.436089
v 0.311491 3.615958 -0.595201
v 0.291490 3.621698 -0.617658
v 0.291490 3.636020 -0.583591
v 0.305633 3.621741 -0.609374
v 0.303038 3.629322 -0.600820
v 0.291490 3.631781 -0.601853
v 0.305633 3.630131 -0.589418
v 0.291491 3.642095 0.568415
v 0.291491 3.628133 0.602632
v 0.311491 3.622157 0.580236
v 0.291491 3.638049 0.586721
v 0.303038 3.635580 0.585714
v 0.305633 3.628089 0.594347
v 0.305633 3.636268 0.574304
v 0.291491 2.817837 1.421519
v 0.291491 2.783770 1.435841
v 0.311491 2.795380 1.415779
v 0.291491 2.802032 1.431602
v 0.303038 2.800998 1.429144
v 0.305633 2.789597 1.429952
v 0.305633 2.809553 1.421563
v 0.291490 1.631763 1.441916
v 0.291490 1.597547 1.427954
v 0.311490 1.619942 1.421978
v 0.291490 1.613457 1.437871
v 0.303038 1.614465 1.435401
v 0.305633 1.605832 1.427910
v 0.305633 1.625875 1.436089
v 0.291490 0.778660 0.617658
v 0.291490 0.764338 0.583591
v 0.311490 0.784399 0.595201
v 0.291490 0.768577 0.601853
v 0.303038 0.771035 0.600820
v 0.305633 0.770227 0.589418
v 0.305633 0.778616 0.609374
v 0.291490 0.758263 -0.568415
v 0.291490 0.772225 -0.602632
v 0.311490 0.778201 -0.580236
v 0.291490 0.762308 -0.586721
v 0.303038 0.764778 -0.585714
v 0.305633 0.772269 -0.594347
v 0.305633 0.764090 -0.574304
v 0.291490 1.582521 -1.421519
v 0.291490 1.616588 -1.435841
v 0.311490 1.604978 -1.415779
v 0.291490 1.598326 -1.431602
v 0.303038 1.599359 -1.429144
v 0.305633 1.610761 -1.429952
v 0.305633 1.590805 -1.421563
v 0.291490 2.768594 -1.441916
v 0.291490 2.802811 -1.427954
v 0.311490 2.780415 -1.421978
v 0.291490 2.786900 -1.437871
v 0.303038 2.785892 -1.435401
v 0.305633 2.794526 -1.427910
v 0.305633 2.774483 -1.436089
v 0.291624 3.307766 -0.445569
v 0.291624 3.293428 -0.479675
v 0.311491 3.325315 -0.473013
v 0.292017 3.303478 -0.463833
v 0.303176 3.306976 -0.465303
v 0.305672 3.306122 -0.473060
v 0.305672 3.311921 -0.459267
v 0.311491 3.330241 0.461120
v 0.291624 3.298426 0.468118
v 0.291624 3.312404 0.433863
v 0.305672 3.311049 0.461370
v 0.303176 3.311821 0.453604
v 0.292017 3.308308 0.452171
v 0.305672 3.316702 0.447516
v 0.311491 2.673192 1.125136
v 0.291624 2.645748 1.107588
v 0.291624 2.679854 1.093249
v 0.305672 2.659446 1.111742
v 0.303176 2.665482 1.106797
v 0.292017 2.664011 1.103299
v 0.305672 2.673239 1.105943
v 0.311490 1.739058 1.130062
v 0.291624 1.732061 1.098247
v 0.291624 1.766316 1.112225
v 0.305672 1.738809 1.110870
v 0.303176 1.746574 1.111643
v 0.292017 1.748008 1.108129
v 0.305672 1.752663 1.116524
v 0.311490 1.075043 0.473013
v 0.291624 1.092591 0.445569
v 0.291624 1.106930 0.479675
v 0.305672 1.088437 0.459267
v 0.303176 1.093382 0.465303
v 0.292017 1.096880 0.463833
v 0.305672 1.094236 0.473060
v 0.311490 1.070117 -0.461120
v 0.291624 1.101932 -0.468118
v 0.291624 1.087954 -0.433863
v 0.305672 1.089308 -0.461370
v 0.303176 1.088536 -0.453604
v 0.292017 1.092050 -0.452171
v 0.305672 1.083655 -0.447516
v 0.311490 1.727166 -1.125136
v 0.291624 1.754610 -1.107588
v 0.291624 1.720504 -1.093249
v 0.305672 1.740912 -1.111742
v 0.303176 1.734875 -1.106797
v 0.292017 1.736346 -1.103299
v 0.305672 1.727119 -1.105943
v 0.311490 2.661299 -1.130062
v 0.291624 2.668297 -1.098247
v 0.291624 2.634042 -1.112225
v 0.305672 2.661548 -1.110870
v 0.303176 2.653783 -1.111643
v 0.292017 2.652350 -1.108129
v 0.305672 2.647695 -1.116524
v 0.240589 3.563614 0.576305
v 0.220589 3.557638 0.553910
v 0.240589 3.577576 0.542089
v 0.226447 3.563570 0.568021
v 0.229042 3.571061 0.559387
v 0.226447 3.571749 0.547977
v 0.240589 3.573531 0.560395
v 0.240589 3.360648 0.493485
v 0.240589 3.374610 0.459269
v 0.220589 3.394759 0.487447
v 0.240589 3.370564 0.477574
v 0.229041 3.375346 0.479526
v 0.226447 3.380543 0.473380
v 0.226447 3.374759 0.487552
v 0.240589 3.355379 -0.505696
v 0.220589 3.389552 -0.500019
v 0.240589 3.369701 -0.471629
v 0.226447 3.369552 -0.499913
v 0.229041 3.370224 -0.491893
v 0.226447 3.375484 -0.485802
v 0.240589 3.365463 -0.489892
v 0.240589 3.571782 -0.556585
v 0.220589 3.551721 -0.568195
v 0.240589 3.557460 -0.590652
v 0.226447 3.565894 -0.562412
v 0.229041 3.565085 -0.573814
v 0.226447 3.557504 -0.582368
v 0.240589 3.567544 -0.574848
v 0.240589 2.756764 1.371603
v 0.220589 2.768374 1.351542
v 0.240589 2.790831 1.357281
v 0.226447 2.762591 1.365715
v 0.229041 2.773993 1.364906
v 0.226447 2.782547 1.357325
v 0.240589 2.775026 1.367365
v 0.240589 2.671808 1.169522
v 0.240589 2.705875 1.155200
v 0.220589 2.700198 1.189373
v 0.240589 2.690070 1.165284
v 0.229041 2.692072 1.170045
v 0.226447 2.700092 1.169373
v 0.226447 2.685981 1.175306
v 0.240589 1.623874 1.363436
v 0.220589 1.646269 1.357460
v 0.240589 1.658090 1.377397
v 0.226447 1.632158 1.363392
v 0.229041 1.640792 1.370882
v 0.226447 1.652201 1.371570
v 0.240589 1.639784 1.373352
v 0.240589 1.706694 1.160470
v 0.240589 1.740910 1.174431
v 0.220589 1.712732 1.194580
v 0.240589 1.722604 1.170386
v 0.229041 1.720653 1.175168
v 0.226447 1.726799 1.180364
v 0.226447 1.712626 1.174580
v 0.240589 0.828575 0.556585
v 0.220589 0.848637 0.568195
v 0.240589 0.842897 0.590652
v 0.226446 0.834464 0.562412
v 0.229041 0.835273 0.573814
v 0.226446 0.842854 0.582368
v 0.240589 0.832814 0.574848
v 0.240589 1.044978 0.505696
v 0.220589 1.010806 0.500019
v 0.240589 1.030656 0.471629
v 0.226446 1.030805 0.499913
v 0.229041 1.030134 0.491893
v 0.226446 1.024873 0.485802
v 0.240589 1.034895 0.489892
v 0.240589 0.822781 -0.542089
v 0.240589 0.836743 -0.576305
v 0.220589 0.842719 -0.553910
v 0.240589 0.826827 -0.560395
v 0.229041 0.829297 -0.559387
v 0.226446 0.836787 -0.568021
v 0.226446 0.828609 -0.547977
v 0.240589 1.025748 -0.459269
v 0.220589 1.005599 -0.487447
v 0.240589 1.039709 -0.493485
v 0.226446 1.019815 -0.473380
v 0.229041 1.025011 -0.479526
v 0.226446 1.025598 -0.487552
v 0.240589 1.029793 -0.477574
v 0.240589 1.609526 -1.357281
v 0.240589 1.643594 -1.371603
v 0.220589 1.631983 -1.351542
v 0.240589 1.625331 -1.367365
v 0.229041 1.626365 -1.364906
v 0.226446 1.637767 -1.365715
v 0.226446 1.617810 -1.357325
v 0.240589 1.694482 -1.155200
v 0.220589 1.700160 -1.189373
v 0.240589 1.728549 -1.169522
v 0.226446 1.700266 -1.169373
v 0.229041 1.708286 -1.170045
v 0.226446 1.714377 -1.175306
v 0.240589 1.710287 -1.165284
v 0.240589 2.742268 -1.377397
v 0.240589 2.776484 -1.363436
v 0.220589 2.754089 -1.357460
v 0.240589 2.760573 -1.373352
v 0.229041 2.759566 -1.370882
v 0.226446 2.768199 -1.363392
v 0.226446 2.748156 -1.371570
v 0.240589 2.659448 -1.174431
v 0.220589 2.687626 -1.194580
v 0.240589 2.693664 -1.160470
v 0.226447 2.673558 -1.180364
v 0.229041 2.679705 -1.175168
v 0.226447 2.687731 -1.174580
v 0.240589 2.677753 -1.170386
vn 0.1726 0.7542 -0.6336
vn 0.1726 0.9803 -0.0957
vn 0.9652 0.2410 -0.1013
vn 0.1382 0.9130 -0.3838
vn 0.5447 0.7731 -0.3250
vn 0.6775 0.7283 -0.1026
vn 0.6775 0.5828 -0.4487
vn -0.3245 -0.9408 0.0981
vn -0.9911 -0.1224 0.0515
vn -0.3245 -0.7283 0.6035
vn -0.8226 -0.5590 0.1044
vn -0.7322 -0.6278 0.2639
vn -0.8226 -0.4656 0.3263
vn -0.3661 -0.8578 0.3606
vn 0.1836 0.7595 0.6241
vn 0.9645 0.2442 0.1009
vn 0.1726 0.9813 0.0853
vn 0.6792 0.5860 0.4419
vn 0.5447 0.7765 0.3168
vn 0.6775 0.7294 0.0949
vn 0.1382 0.9170 0.3742
vn -0.3245 -0.9417 -0.0882
vn -0.3245 -0.7346 -0.5958
vn -0.9911 -0.1229 -0.0502
vn -0.3661 -0.8616 -0.3516
vn -0.7322 -0.6306 -0.2573
vn -0.8226 -0.4691 -0.3214
vn -0.8226 -0.5600 -0.0985
vn 0.2038 0.0793 0.9758
vn 0.9598 0.1088 0.2588
vn 0.2038 0.6417 0.7394
vn 0.7062 0.0735 0.7042
vn 0.6065 0.3081 0.7329
vn 0.7062 0.4517 0.5452
vn 0.1962 0.3800 0.9039
vn -0.3245 -0.6035 -0.7283
vn -0.3245 -0.0981 -0.9408
vn -0.9911 -0.0515 -0.1224
vn -0.3661 -0.3606 -0.8578
vn -0.7322 -0.2639 -0.6278
vn -0.8226 -0.1044 -0.5589
vn -0.8226 -0.3263 -0.4656
vn 0.1726 -0.6256 0.7608
vn 0.9645 -0.0988 0.2451
vn 0.1836 -0.0854 0.9793
vn 0.6775 -0.4425 0.5875
vn 0.5447 -0.3168 0.7765
vn 0.6792 -0.0942 0.7279
vn 0.1382 -0.3742 0.9170
vn -0.3245 0.0882 -0.9417
vn -0.3245 0.5958 -0.7346
vn -0.9911 0.0502 -0.1229
vn -0.3661 0.3516 -0.8616
vn -0.7322 0.2573 -0.6306
vn -0.8226 0.3214 -0.4691
vn -0.8226 0.0985 -0.5600
vn 0.1726 -0.7542 0.6336
vn 0.1726 -0.9803 0.0957
vn 0.9652 -0.2410 0.1013
vn 0.1382 -0.9130 0.3838
vn 0.5447 -0.7731 0.3250
vn 0.6775 -0.7283 0.1026
vn 0.6775 -0.5828 0.4487
vn -0.3245 0.7283 -0.6035
vn -0.3245 0.9408 -0.0981
vn -0.9911 0.1224 -0.0515
vn -0.3661 0.8578 -0.3606
vn -0.7322 0.6278 -0.2639
vn -0.8226 0.5590 -0.1044
vn -0.8226 0.4656 -0.3263
vn 0.1726 -0.9813 -0.0853
vn 0.1726 -0.7608 -0.6256
vn 0.9652 -0.2421 -0.0988
vn 0.1382 -0.9170 -0.3742
vn 0.5447 -0.7765 -0.3168
vn 0.6775 -0.5875 -0.4425
vn 0.6775 -0.7294 -0.0949
vn -0.3245 0.9417 0.0882
vn -0.3245 0.7346 0.5958
vn -0.9911 0.1229 0.0502
vn -0.3661 0.8616 0.3516
vn -0.7322 0.6306 0.2573
vn -0.8226 0.4691 0.3214
vn -0.8226 0.5600 0.0985
vn 0.1726 -0.6336 -0.7542
vn 0.1726 -0.0957 -0.9803
vn 0.9652 -0.1013 -0.2410
vn 0.1382 -0.3838 -0.9130
vn 0.5447 -0.3250 -0.7731
vn 0.6775 -0.1026 -0.7283
vn 0.6775 -0.4487 -0.5828
vn -0.3245 0.6035 0.7283
vn -0.3245 0.0981 0.9408
vn -0.9911 0.0515 0.1224
vn -0.3661 0.3606 0.8578
vn -0.7322 0.2639 0.6278
vn -0.8226 0.1044 0.5589
vn -0.8226 0.3263 0.4656
vn 0.1726 0.0853 -0.9813
vn 0.1726 0.6256 -0.7608
vn 0.9652 0.0988 -0.2421
vn 0.1382 0.3742 -0.9170
vn 0.5447 0.3168 -0.7765
vn 0.6775 0.4425 -0.5875
vn 0.6775 0.0949 -0.7294
vn -0.3245 -0.0882 0.9417
vn -0.3245 -0.5958 0.7346
vn -0.9911 -0.0502 0.1229
vn -0.3661 -0.3516 0.8616
vn -0.7322 -0.2573 0.6306
vn -0.8226 -0.3214 0.4691
vn -0.8226 -0.0985 0.5600
vn 0.2190 -0.9705 0.1005
vn 0.2190 -0.7508 0.6231
vn 0.9903 -0.1284 0.0540
vn 0.2694 -0.8878 0.3732
vn 0.6937 -0.6639 0.2791
vn 0.7953 -0.4982 0.3455
vn 0.7953 -0.5954 0.1143
vn 0.2190 -0.7574 -0.6152
vn 0.2190 -0.9715 -0.0903
vn 0.9903 -0.1289 -0.0526
vn 0.2694 -0.8916 -0.3638
vn 0.6937 -0.6668 -0.2721
vn 0.7953 -0.5966 -0.1080
vn 0.7953 -0.5018 -0.3402
vn 0.2190 -0.1005 -0.9705
vn 0.2190 -0.6231 -0.7508
vn 0.9903 -0.0540 -0.1284
vn 0.2694 -0.3732 -0.8878
vn 0.6937 -0.2791 -0.6639
vn 0.7953 -0.3455 -0.4982
vn 0.7953 -0.1143 -0.5954
vn 0.2190 0.6152 -0.7574
vn 0.2190 0.0903 -0.9715
vn 0.9903 0.0526 -0.1289
vn 0.2694 0.3638 -0.8916
vn 0.6937 0.2721 -0.6668
vn 0.7953 0.1080 -0.5966
vn 0.7953 0.3402 -0.5018
vn 0.2190 0.9705 -0.1005
vn 0.2190 0.7508 -0.6231
vn 0.9903 0.1284 -0.0540
vn 0.2694 0.8878 -0.3732
vn 0.6937 0.6639 -0.2791
vn 0.7953 0.4982 -0.3455
vn 0.7953 0.5954 -0.1143
vn 0.2190 0.9715 0.0903
vn 0.9903 0.1289 0.0526
vn 0.2190 0.7574 0.6152
vn 0.7953 0.5966 0.1080
vn 0.6937 0.6668 0.2721
vn 0.7953 0.5018 0.3402
vn 0.2694 0.8916 0.3638
vn 0.2190 0.6231 0.7508
vn 0.9903 0.0540 0.1284
vn 0.2190 0.1005 0.9705
vn 0.7953 0.3455 0.4982
vn 0.6937 0.2791 0.6639
vn 0.7953 0.1143 0.5954
vn 0.2694 0.3732 0.8878
vn 0.2190 -0.0903 0.9715
vn 0.9903 -0.0526 0.1289
vn 0.2190 -0.6152 0.7574
vn 0.7953 -0.1080 0.5966
vn 0.6937 -0.2721 0.6668
vn 0.7953 -0.3402 0.5018
vn 0.2694 -0.3638 0.8916
vn -0.9652 0.2421 0.0988
vn -0.1726 0.7608 0.6256
vn -0.1726 0.9813 0.0853
vn -0.6775 0.5875 0.4425
vn -0.5447 0.7765 0.3168
vn -0.1382 0.9170 0.3742
vn -0.6775 0.7294 0.0949
vn -0.1726 0.9803 -0.0957
vn -0.1726 0.7542 -0.6336
vn -0.9652 0.2410 -0.1013
vn -0.1382 0.9130 -0.3838
vn -0.5447 0.7731 -0.3250
vn -0.6775 0.5828 -0.4487
vn -0.6775 0.7283 -0.1026
vn -0.9652 0.1013 0.2410
vn -0.1726 0.0957 0.9803
vn -0.1726 0.6336 0.7542
vn -0.6775 0.1026 0.7283
vn -0.5447 0.3250 0.7731
vn -0.1382 0.3838 0.9130
vn -0.6775 0.4487 0.5828
vn -0.9652 -0.0988 0.2421
vn -0.1726 -0.6256 0.7608
vn -0.1726 -0.0853 0.9813
vn -0.6775 -0.4425 0.5875
vn -0.5447 -0.3168 0.7765
vn -0.1382 -0.3742 0.9170
vn -0.6775 -0.0949 0.7294
vn -0.9652 -0.2410 0.1013
vn -0.1726 -0.9803 0.0957
vn -0.1726 -0.7542 0.6336
vn -0.6775 -0.7283 0.1026
vn -0.5447 -0.7731 0.3250
vn -0.1382 -0.9130 0.3838
vn -0.6775 -0.5828 0.4487
vn -0.9652 -0.2421 -0.0988
vn -0.1726 -0.7608 -0.6256
vn -0.1726 -0.9813 -0.0853
vn -0.6775 -0.5875 -0.4425
vn -0.5447 -0.7765 -0.3168
vn -0.1382 -0.9170 -0.3742
vn -0.6775 -0.7294 -0.0949
vn -0.9652 -0.1013 -0.2410
vn -0.1726 -0.0957 -0.9803
vn -0.1726 -0.6336 -0.7542
vn -0.6775 -0.1026 -0.7283
vn -0.5447 -0.3250 -0.7731
vn -0.1382 -0.3838 -0.9130
vn -0.6775 -0.4487 -0.5828
vn -0.9652 0.0988 -0.2421
vn -0.1726 0.6256 -0.7608
vn -0.1726 0.0853 -0.9813
vn -0.6775 0.4425 -0.5875
vn -0.5447 0.3168 -0.7765
vn -0.1382 0.3742 -0.9170
vn -0.6775 0.0949 -0.7294
vn 0.1726 0.7608 0.6256
vn 0.9652 0.2421 0.0988
vn 0.6775 0.5875 0.4425
vn 0.1726 0.6336 0.7542
vn 0.1726 0.0957 0.9803
vn 0.9652 0.1013 0.2410
vn 0.1382 0.3838 0.9130
vn 0.5447 0.3250 0.7731
vn 0.6775 0.1026 0.7283
vn 0.6775 0.4487 0.5828
vn 0.1726 -0.0853 0.9813
vn 0.9652 -0.0988 0.2421
vn 0.6775 -0.0949 0.7294
vn 0.1088 -0.9889 0.1016
vn 0.1088 -0.7644 0.6355
vn 0.9895 -0.1332 0.0560
vn 0.1693 -0.9085 0.3820
vn 0.6547 -0.6968 0.2930
vn 0.7665 -0.5299 0.3630
vn 0.7665 -0.6301 0.1246
vn 0.9895 -0.1337 -0.0546
vn 0.1088 -0.7711 -0.6274
vn 0.1088 -0.9899 -0.0912
vn 0.7665 -0.5337 -0.3574
vn 0.6547 -0.6999 -0.2856
vn 0.1693 -0.9125 -0.3724
vn 0.7665 -0.6313 -0.1180
vn 0.9895 -0.0560 -0.1332
vn 0.1088 -0.1016 -0.9889
vn 0.1088 -0.6355 -0.7644
vn 0.7665 -0.1246 -0.6301
vn 0.6547 -0.2930 -0.6968
vn 0.1693 -0.3820 -0.9085
vn 0.7665 -0.3630 -0.5299
vn 0.9895 0.0546 -0.1338
vn 0.1088 0.6274 -0.7711
vn 0.1088 0.0912 -0.9899
vn 0.7665 0.3574 -0.5337
vn 0.6547 0.2856 -0.6999
vn 0.1693 0.3724 -0.9125
vn 0.7665 0.1180 -0.6313
vn 0.9895 0.1332 -0.0560
vn 0.1088 0.9889 -0.1016
vn 0.1088 0.7644 -0.6355
vn 0.7665 0.6301 -0.1246
vn 0.6547 0.6968 -0.2930
vn 0.1693 0.9085 -0.3820
vn 0.7665 0.5299 -0.3630
vn 0.9895 0.1337 0.0546
vn 0.1088 0.7711 0.6274
vn 0.1088 0.9899 0.0912
vn 0.7665 0.5337 0.3574
vn 0.6547 0.6999 0.2856
vn 0.1693 0.9125 0.3724
vn 0.7665 0.6313 0.1180
vn 0.9895 0.0560 0.1332
vn 0.1088 0.1016 0.9889
vn 0.1088 0.6355 0.7644
vn 0.7665 0.1246 0.6301
vn 0.6547 0.2930 0.6968
vn 0.1693 0.3820 0.9085
vn 0.7665 0.3630 0.5299
vn 0.9895 -0.0546 0.1338
vn 0.1088 -0.6274 0.7711
vn 0.1088 -0.0912 0.9899
vn 0.7665 -0.3574 0.5337
vn 0.6547 -0.2856 0.6999
vn 0.1693 -0.3724 0.9125
vn 0.7665 -0.1180 0.6313
vn 0.6938 0.6639 -0.2791
vn 0.2158 0.0920 0.9721
vn 0.2158 0.6302 0.7458
vn 0.2639 0.3738 0.8892
vn 0.6938 0.2791 0.6639
vn 0.6938 -0.6639 0.2791
vn 0.6938 -0.2791 -0.6639
vt 0.747153 0.444302
vt 0.750000 0.445482
vt 0.750000 0.445374
vt 0.747987 0.444648
vt 0.752847 0.444302
vt 0.752013 0.444648
vt 0.750000 0.442146
vt 0.268795 0.445247
vt 0.250904 0.446438
vt 0.252247 0.446752
vt 0.266706 0.446409
vt 0.250000 0.450148
vt 0.249096 0.446438
vt 0.263094 0.445247
vt 0.889406 0.385379
vt 0.889060 0.386213
vt 0.888150 0.388150
vt 0.888227 0.388227
vt 0.885868 0.385868
vt 0.886213 0.389060
vt 0.885379 0.389406
vt 0.401989 0.390076
vt 0.405588 0.388882
vt 0.391371 0.389124
vt 0.388264 0.389541
vt 0.406021 0.386044
vt 0.389541 0.388264
vt 0.391526 0.391526
vt 0.944302 0.247153
vt 0.944475 0.247570
vt 0.945364 0.250000
vt 0.945482 0.250000
vt 0.942146 0.250000
vt 0.944475 0.252430
vt 0.944302 0.252847
vt 0.461191 0.252851
vt 0.463115 0.250000
vt 0.448998 0.250000
vt 0.446438 0.250904
vt 0.461191 0.247149
vt 0.446438 0.249096
vt 0.450148 0.250000
vt 0.885379 0.110594
vt 0.886213 0.110940
vt 0.888150 0.111850
vt 0.888227 0.111774
vt 0.885868 0.114132
vt 0.889060 0.113787
vt 0.889406 0.114621
vt 0.406021 0.113956
vt 0.405588 0.111118
vt 0.391371 0.110876
vt 0.389542 0.111736
vt 0.401989 0.109924
vt 0.388264 0.110459
vt 0.391526 0.108474
vt 0.752847 0.055698
vt 0.750000 0.054518
vt 0.750000 0.054626
vt 0.752013 0.055352
vt 0.747153 0.055698
vt 0.747987 0.055352
vt 0.750000 0.057854
vt 0.268795 0.054753
vt 0.266706 0.053591
vt 0.252247 0.053248
vt 0.250904 0.053562
vt 0.263094 0.054753
vt 0.249096 0.053562
vt 0.250000 0.049852
vt 0.614621 0.110594
vt 0.611774 0.111774
vt 0.611850 0.111850
vt 0.613787 0.110940
vt 0.610594 0.114621
vt 0.610940 0.113787
vt 0.614132 0.114132
vt 0.129900 0.109924
vt 0.127824 0.111118
vt 0.113122 0.110876
vt 0.111736 0.110459
vt 0.125869 0.113956
vt 0.110458 0.111736
vt 0.108474 0.108474
vt 0.555698 0.247153
vt 0.554518 0.250000
vt 0.554626 0.250000
vt 0.555352 0.247987
vt 0.555698 0.252847
vt 0.555352 0.252013
vt 0.557854 0.250000
vt 0.070698 0.247149
vt 0.070297 0.250000
vt 0.055495 0.250000
vt 0.053562 0.249096
vt 0.070698 0.252851
vt 0.053562 0.250904
vt 0.049852 0.250000
vt 0.610594 0.385379
vt 0.611774 0.388227
vt 0.611850 0.388150
vt 0.610940 0.386213
vt 0.614621 0.389406
vt 0.613787 0.389060
vt 0.614132 0.385868
vt 0.125869 0.386044
vt 0.127824 0.388882
vt 0.113122 0.389124
vt 0.110459 0.388264
vt 0.129900 0.390076
vt 0.111736 0.389542
vt 0.108474 0.391526
vt 0.752847 0.478083
vt 0.750000 0.479262
vt 0.750834 0.478917
vt 0.747153 0.478083
vt 0.749166 0.478917
vt 0.750000 0.482598
vt 0.913292 0.409265
vt 0.912113 0.412113
vt 0.912458 0.411279
vt 0.909265 0.413292
vt 0.911279 0.412458
vt 0.914472 0.414472
vt 0.978083 0.247153
vt 0.979262 0.250000
vt 0.979262 0.250000
vt 0.978917 0.249166
vt 0.978083 0.252847
vt 0.978917 0.250834
vt 0.982598 0.250000
vt 0.909265 0.086708
vt 0.912113 0.087887
vt 0.911279 0.087542
vt 0.913292 0.090735
vt 0.912458 0.088721
vt 0.914472 0.085528
vt 0.747153 0.021917
vt 0.750000 0.020738
vt 0.750000 0.020738
vt 0.749166 0.021083
vt 0.752847 0.021917
vt 0.750834 0.021083
vt 0.750000 0.017402
vt 0.590735 0.086708
vt 0.588721 0.087542
vt 0.587887 0.087887
vt 0.585528 0.085528
vt 0.587542 0.088721
vt 0.586708 0.090735
vt 0.521917 0.247153
vt 0.521083 0.249166
vt 0.520738 0.250000
vt 0.517402 0.250000
vt 0.521083 0.250834
vt 0.521917 0.252847
vt 0.586708 0.409265
vt 0.587542 0.411279
vt 0.587887 0.412113
vt 0.585528 0.414472
vt 0.588721 0.412458
vt 0.590735 0.413292
vt 0.417347 0.417347
vt 0.420540 0.417692
vt 0.419867 0.419316
vt 0.417692 0.420540
vt 0.872903 0.983948
vt 0.875000 0.983948
vt 0.875143 0.996608
vt 0.873517 1.000000
vt 0.877097 0.983948
vt 0.876483 1.000000
vt 0.997903 0.983948
vt 1.000000 0.983948
vt 1.000000 0.993216
vt 0.998517 1.000000
vt 0.002097 0.983948
vt 0.001483 1.000000
vt 0.000287 1.000000
vt 0.000000 0.983948
vt 0.250000 0.486664
vt 0.252013 0.489166
vt 0.250390 0.489839
vt 0.247987 0.489166
vt 0.486664 0.250000
vt 0.489166 0.247987
vt 0.489839 0.249610
vt 0.489166 0.252013
vt 0.747903 0.983948
vt 0.750000 0.983948
vt 0.750143 0.996608
vt 0.748517 1.000000
vt 0.752097 0.983948
vt 0.751483 1.000000
vt 0.417347 0.082653
vt 0.417692 0.079460
vt 0.419316 0.080133
vt 0.420540 0.082308
vt 0.622903 0.983948
vt 0.625000 0.983948
vt 0.625143 0.996608
vt 0.623517 1.000000
vt 0.627097 0.983948
vt 0.626483 1.000000
vt 0.250000 0.013336
vt 0.247987 0.010834
vt 0.249610 0.010161
vt 0.252013 0.010834
vt 0.497903 0.983948
vt 0.500000 0.983948
vt 0.500143 0.996608
vt 0.498517 1.000000
vt 0.502097 0.983948
vt 0.501483 1.000000
vt 0.082653 0.082653
vt 0.079460 0.082308
vt 0.080133 0.080684
vt 0.082308 0.079460
vt 0.372903 0.983948
vt 0.375000 0.983948
vt 0.375143 0.996608
vt 0.373517 1.000000
vt 0.377097 0.983948
vt 0.376483 1.000000
vt 0.013336 0.250000
vt 0.010834 0.252013
vt 0.010161 0.250390
vt 0.010834 0.247987
vt 0.247903 0.983948
vt 0.250000 0.983948
vt 0.250143 0.996608
vt 0.248517 1.000000
vt 0.252097 0.983948
vt 0.251483 1.000000
vt 0.082653 0.417347
vt 0.082308 0.420540
vt 0.080684 0.419867
vt 0.079460 0.417692
vt 0.122903 0.983948
vt 0.125000 0.983948
vt 0.125143 0.996608
vt 0.123517 1.000000
vt 0.127097 0.983948
vt 0.126483 1.000000
vt 0.750000 0.486664
vt 0.747987 0.489166
vt 0.749610 0.489839
vt 0.752013 0.489166
vt 0.002097 0.516052
vt 0.000000 0.516052
vt 0.000000 0.506784
vt 0.001483 0.500000
vt 0.997903 0.516052
vt 0.998517 0.500000
vt 0.999713 0.500000
vt 1.000000 0.516052
vt 0.877097 0.516052
vt 0.875000 0.516052
vt 0.874856 0.503392
vt 0.876483 0.500000
vt 0.872903 0.516052
vt 0.873517 0.500000
vt 0.917347 0.417347
vt 0.917692 0.420540
vt 0.919316 0.419867
vt 0.920540 0.417692
vt 0.752097 0.516052
vt 0.750000 0.516052
vt 0.749857 0.503392
vt 0.751483 0.500000
vt 0.747903 0.516052
vt 0.748517 0.500000
vt 0.986664 0.250000
vt 0.989166 0.252013
vt 0.989839 0.250390
vt 0.989166 0.247987
vt 0.627097 0.516052
vt 0.625000 0.516052
vt 0.624857 0.503392
vt 0.626483 0.500000
vt 0.622903 0.516052
vt 0.623517 0.500000
vt 0.917347 0.082653
vt 0.920540 0.082308
vt 0.919867 0.080684
vt 0.917692 0.079460
vt 0.502097 0.516052
vt 0.500000 0.516052
vt 0.499857 0.503392
vt 0.501483 0.500000
vt 0.497903 0.516052
vt 0.498517 0.500000
vt 0.750000 0.013336
vt 0.752013 0.010834
vt 0.750390 0.010161
vt 0.747987 0.010834
vt 0.377097 0.516052
vt 0.375000 0.516052
vt 0.374857 0.503392
vt 0.376483 0.500000
vt 0.372903 0.516052
vt 0.373517 0.500000
vt 0.582653 0.082653
vt 0.582308 0.079460
vt 0.580684 0.080133
vt 0.579460 0.082308
vt 0.252097 0.516052
vt 0.250000 0.516052
vt 0.249857 0.503392
vt 0.251483 0.500000
vt 0.247903 0.516052
vt 0.248517 0.500000
vt 0.513336 0.250000
vt 0.510834 0.247987
vt 0.510161 0.249610
vt 0.510834 0.252013
vt 0.127097 0.516052
vt 0.125000 0.516052
vt 0.124857 0.503392
vt 0.126483 0.500000
vt 0.122903 0.516052
vt 0.123517 0.500000
vt 0.582653 0.417347
vt 0.579460 0.417692
vt 0.580133 0.419316
vt 0.582308 0.420540
vt 0.736906 0.433948
vt 0.734816 0.435110
vt 0.747752 0.434798
vt 0.750768 0.434426
vt 0.731205 0.433948
vt 0.749233 0.434426
vt 0.750000 0.438080
vt 0.882992 0.382992
vt 0.880952 0.379866
vt 0.878424 0.380672
vt 0.879866 0.380951
vt 0.866142 0.378055
vt 0.865709 0.380893
vt 0.862110 0.382086
vt 0.938080 0.250000
vt 0.934426 0.249232
vt 0.932550 0.250000
vt 0.934426 0.250768
vt 0.918003 0.247149
vt 0.919927 0.250000
vt 0.918003 0.252851
vt 0.882993 0.117008
vt 0.879866 0.119049
vt 0.878424 0.119328
vt 0.880952 0.120134
vt 0.862110 0.117914
vt 0.865709 0.119107
vt 0.866142 0.121945
vt 0.750000 0.061920
vt 0.749232 0.065574
vt 0.747752 0.065202
vt 0.750768 0.065574
vt 0.731205 0.066052
vt 0.734816 0.064890
vt 0.736906 0.066052
vt 0.617008 0.117008
vt 0.619049 0.120134
vt 0.617080 0.119328
vt 0.620134 0.119049
vt 0.601969 0.121945
vt 0.603924 0.119107
vt 0.606000 0.117914
vt 0.561920 0.250000
vt 0.565574 0.250768
vt 0.562954 0.250000
vt 0.565574 0.249232
vt 0.550107 0.252851
vt 0.549706 0.250000
vt 0.550107 0.247149
vt 0.617008 0.382992
vt 0.620134 0.380952
vt 0.617080 0.380672
vt 0.619049 0.379866
vt 0.606000 0.382086
vt 0.603924 0.380893
vt 0.601969 0.378055
vt 0.913292 0.409265
vt 0.912947 0.410099
vt 0.912037 0.412037
vt 0.912113 0.412113
vt 0.909754 0.409754
vt 0.910099 0.412947
vt 0.909265 0.413292
vt 0.889406 0.385379
vt 0.888227 0.388226
vt 0.888572 0.387393
vt 0.885379 0.389406
vt 0.887393 0.388572
vt 0.890585 0.390585
vt 0.747153 0.444302
vt 0.749166 0.445136
vt 0.750000 0.445482
vt 0.750000 0.448818
vt 0.750834 0.445136
vt 0.752847 0.478083
vt 0.752013 0.478428
vt 0.750000 0.479154
vt 0.750000 0.475926
vt 0.747987 0.478428
vt 0.747153 0.478083
vt 0.978083 0.247153
vt 0.978428 0.247987
vt 0.979154 0.250000
vt 0.975926 0.250000
vt 0.978428 0.252013
vt 0.944302 0.247153
vt 0.945136 0.249166
vt 0.944302 0.252847
vt 0.945136 0.250834
vt 0.948818 0.250000
vt 0.909265 0.086708
vt 0.910099 0.087053
vt 0.912037 0.087963
vt 0.909754 0.090246
vt 0.912947 0.089901
vt 0.913292 0.090735
vt 0.885379 0.110594
vt 0.888227 0.111774
vt 0.888227 0.111774
vt 0.887393 0.111428
vt 0.889406 0.114621
vt 0.888572 0.112608
vt 0.890585 0.109415
vt 0.747153 0.021917
vt 0.747987 0.021572
vt 0.750000 0.020846
vt 0.750000 0.020738
vt 0.750000 0.024074
vt 0.752013 0.021572
vt 0.752847 0.021917
vt 0.752847 0.055698
vt 0.750834 0.054864
vt 0.750000 0.054518
vt 0.750000 0.051182
vt 0.749166 0.054864
vt 0.747153 0.055698
vt 0.590735 0.086708
vt 0.587963 0.087963
vt 0.589901 0.087053
vt 0.586708 0.090735
vt 0.587053 0.089901
vt 0.590246 0.090246
vt 0.614621 0.110594
vt 0.612607 0.111428
vt 0.611774 0.111774
vt 0.609415 0.109415
vt 0.611428 0.112608
vt 0.610594 0.114621
vt 0.521917 0.247153
vt 0.520846 0.250000
vt 0.521572 0.247987
vt 0.521572 0.252013
vt 0.524074 0.250000
vt 0.555698 0.247153
vt 0.554864 0.249166
vt 0.551182 0.250000
vt 0.554864 0.250834
vt 0.555698 0.252847
vt 0.586708 0.409265
vt 0.587963 0.412037
vt 0.587053 0.410099
vt 0.590735 0.413292
vt 0.589901 0.412947
vt 0.590246 0.409754
vt 0.610594 0.385379
vt 0.611428 0.387393
vt 0.611774 0.388226
vt 0.611774 0.388226
vt 0.609415 0.390585
vt 0.612607 0.388572
vt 0.614621 0.389406
s 1
usemtl Material.001
f 1/1/1 4/2/4 5/3/5 7/4/7
f 2/5/2 6/6/6 5/3/5 4/2/4
f 3/7/3 7/4/7 5/3/5 6/6/6
f 8/8/8 11/9/11 12/10/12 14/11/14
f 9/12/9 13/13/13 12/10/12 11/9/11
f 10/14/10 14/11/14 12/10/12 13/13/13
f 15/15/15 18/16/18 19/17/19 21/18/21
f 16/19/16 20/20/20 19/17/19 18/16/18
f 17/21/17 21/18/21 19/17/19 20/20/20
f 22/22/22 25/23/25 26/24/26 28/25/28
f 23/26/23 27/27/27 26/24/26 25/23/25
f 24/28/24 28/25/28 26/24/26 27/27/27
f 29/29/29 32/30/32 33/31/33 35/32/35
f 30/33/30 34/34/34 33/31/33 32/30/32
f 31/35/31 35/32/35 33/31/33 34/34/34
f 36/36/36 39/37/39 40/38/40 42/39/42
f 37/40/37 41/41/41 40/38/40 39/37/39
f 38/42/38 42/39/42 40/38/40 41/41/41
f 43/43/43 46/44/46 47/45/47 49/46/49
f 44/47/44 48/48/48 47/45/47 46/44/46
f 45/49/45 49/46/49 47/45/47 48/48/48
f 50/50/50 53/51/53 54/52/54 56/53/56
f 51/54/51 55/55/55 54/52/54 53/51/53
f 52/56/52 56/53/56 54/52/54 55/55/55
f 57/57/57 60/58/60 61/59/61 63/60/63
f 58/61/58 62/62/62 61/59/61 60/58/60
f 59/63/59 63/60/63 61/59/61 62/62/62
f 64/64/64 67/65/67 68/66/68 70/67/70
f 65/68/65 69/69/69 68/66/68 67/65/67
f 66/70/66 70/67/70 68/66/68 69/69/69
f 71/71/71 74/72/74 75/73/75 77/74/77
f 72/75/72 76/76/76 75/73/75 74/72/74
f 73/77/73 77/74/77 75/73/75 76/76/76
f 78/78/78 81/79/81 82/80/82 84/81/84
f 79/82/79 83/83/83 82/80/82 81/79/81
f 80/84/80 84/81/84 82/80/82 83/83/83
f 85/85/85 88/86/88 89/87/89 91/88/91
f 86/89/86 90/90/90 89/87/89 88/86/88
f 87/91/87 91/88/91 89/87/89 90/90/90
f 92/92/92 95/93/95 96/94/96 98/95/98
f 93/96/93 97/97/97 96/94/96 95/93/95
f 94/98/94 98/95/98 96/94/96 97/97/97
f 99/99/99 102/100/102 103/101/103 105/102/105
f 100/103/100 104/104/104 103/101/103 102/100/102
f 101/105/101 105/102/105 103/101/103 104/104/104
f 106/106/106 109/107/109 110/108/110 112/109/112
f 107/110/107 111/111/111 110/108/110 109/107/109
f 108/112/108 112/109/112 110/108/110 111/111/111
f 113/113/113 116/114/116 117/114/117 119/115/119
f 114/116/114 118/117/118 117/114/117 116/114/116
f 115/118/115 119/115/119 117/114/117 118/117/118
f 120/119/120 123/120/123 124/120/124 126/121/126
f 121/122/121 125/123/125 124/120/124 123/120/123
f 122/124/122 126/121/126 124/120/124 125/123/125
f 127/125/127 130/126/130 131/127/131 133/128/133
f 128/129/128 132/130/132 131/127/131 130/126/130
f 129/131/129 133/128/133 131/127/131 132/130/132
f 134/132/134 137/133/137 138/133/138 140/134/140
f 135/135/135 139/136/139 138/133/138 137/133/137
f 136/137/136 140/134/140 138/133/138 139/136/139
f 141/138/141 144/139/144 145/140/145 147/141/147
f 142/142/142 146/143/146 145/140/145 144/139/144
f 143/144/143 147/141/147 145/140/145 146/143/146
f 148/145/148 151/146/151 152/147/152 154/147/154
f 149/148/149 153/149/153 152/147/152 151/146/151
f 150/150/150 154/147/154 152/147/152 153/149/153
f 155/151/155 158/152/158 159/153/159 161/153/161
f 156/154/156 160/155/160 159/153/159 158/152/158
f 157/156/157 161/153/161 159/153/159 160/155/160
f 162/157/162 165/158/165 166/159/166 168/159/168
f 163/160/163 167/161/167 166/159/166 165/158/165
f 164/162/164 168/159/168 166/159/166 167/161/167
f 169/163/169 172/164/172 173/165/173 175/166/175
f 170/167/170 174/168/174 173/169/173 172/170/172
f 171/171/171 175/172/175 173/169/173 174/168/174
f 176/173/176 179/174/179 180/175/180 182/176/182
f 177/177/177 181/178/181 180/179/180 179/180/179
f 178/181/178 182/182/182 180/183/180 181/184/181
f 183/185/183 186/186/186 187/187/187 189/188/189
f 184/189/184 188/190/188 187/191/187 186/192/186
f 185/193/185 189/194/189 187/191/187 188/190/188
f 190/195/190 193/196/193 194/197/194 196/198/196
f 191/199/191 195/200/195 194/201/194 193/202/193
f 192/203/192 196/204/196 194/201/194 195/200/195
f 197/205/197 200/206/200 201/207/201 203/208/203
f 198/209/198 202/210/202 201/211/201 200/212/200
f 199/213/199 203/214/203 201/211/201 202/210/202
f 204/215/204 207/216/207 208/217/208 210/218/210
f 205/219/205 209/220/209 208/221/208 207/222/207
f 206/223/206 210/224/210 208/221/208 209/220/209
f 211/225/211 214/226/214 215/227/215 217/228/217
f 212/229/212 216/230/216 215/231/215 214/232/214
f 213/233/213 217/234/217 215/231/215 216/230/216
f 218/235/218 221/236/221 222/237/222 224/238/224
f 219/239/219 223/240/223 222/241/222 221/242/221
f 220/243/220 224/244/224 222/241/222 223/240/223
f 225/245/3 228/246/7 229/247/5 231/248/6
f 226/249/1 230/250/4 229/251/5 228/252/7
f 227/253/2 231/254/6 229/255/5 230/256/4
f 232/257/17 235/258/21 236/259/19 238/260/20
f 233/261/225 237/262/227 236/259/19 235/258/21
f 234/263/226 238/264/20 236/265/19 237/266/227
f 239/267/228 242/268/231 243/269/232 245/270/234
f 240/271/229 244/272/233 243/269/232 242/268/231
f 241/273/230 245/274/234 243/275/232 244/276/233
f 246/277/235 249/278/49 250/279/47 252/280/237
f 247/281/43 251/282/46 250/279/47 249/278/49
f 248/283/236 252/284/237 250/285/47 251/286/46
f 253/287/57 256/288/60 257/289/61 259/290/63
f 254/291/58 258/292/62 257/289/61 256/288/60
f 255/293/59 259/294/63 257/295/61 258/296/62
f 260/297/71 263/298/74 264/299/75 266/300/77
f 261/301/72 265/302/76 264/299/75 263/298/74
f 262/303/73 266/304/77 264/305/75 265/306/76
f 267/307/85 270/308/88 271/309/89 273/310/91
f 268/311/86 272/312/90 271/309/89 270/308/88
f 269/313/87 273/314/91 271/315/89 272/316/90
f 274/317/99 277/318/102 278/319/103 280/320/105
f 275/321/100 279/322/104 278/319/103 277/318/102
f 276/323/101 280/324/105 278/325/103 279/326/104
f 281/327/238 284/328/241 285/329/242 287/330/244
f 282/331/239 286/332/243 285/329/242 284/328/241
f 283/333/240 287/330/244 285/329/242 286/332/243
f 288/334/245 291/335/248 292/336/249 294/337/251
f 289/338/246 293/339/250 292/336/249 291/335/248
f 290/340/247 294/337/251 292/336/249 293/339/250
f 295/341/252 298/342/255 299/343/256 301/344/258
f 296/345/253 300/346/257 299/343/256 298/342/255
f 297/347/254 301/344/258 299/343/256 300/346/257
f 302/348/259 305/349/262 306/350/263 308/351/265
f 303/352/260 307/353/264 306/350/263 305/349/262
f 304/354/261 308/351/265 306/350/263 307/353/264
f 309/355/266 312/356/269 313/357/270 315/358/272
f 310/359/267 314/360/271 313/357/270 312/356/269
f 311/361/268 315/358/272 313/357/270 314/360/271
f 316/362/273 319/363/276 320/364/277 322/365/279
f 317/366/274 321/367/278 320/364/277 319/363/276
f 318/368/275 322/365/279 320/364/277 321/367/278
f 323/369/280 326/370/283 327/371/284 329/372/286
f 324/373/281 328/374/285 327/371/284 326/370/283
f 325/375/282 329/372/286 327/371/284 328/374/285
f 330/376/287 333/377/290 334/378/291 336/379/293
f 331/380/288 335/381/292 334/378/291 333/377/290
f 332/382/289 336/379/293 334/378/291 335/381/292
f 337/383/72 340/384/76 341/385/75 343/386/74
f 338/387/73 342/388/77 341/385/75 340/384/76
f 339/389/71 343/386/74 341/385/75 342/388/77
f 344/390/150 347/391/154 348/391/152 350/392/153
f 345/393/148 349/394/151 348/391/152 347/391/154
f 346/395/149 350/392/153 348/391/152 349/394/151
f 351/396/142 354/397/146 355/2/294 357/398/144
f 352/399/143 356/400/147 355/2/294 354/397/146
f 353/5/141 357/398/144 355/2/294 356/400/147
f 358/401/58 361/402/62 362/403/61 364/114/60
f 359/404/59 363/405/63 362/403/61 361/402/62
f 360/406/57 364/114/60 362/403/61 363/405/63
f 365/407/86 368/408/90 369/409/89 371/126/88
f 366/410/87 370/411/91 369/409/89 368/408/90
f 367/129/85 371/126/88 369/409/89 370/411/91
f 372/412/295 375/32/297 376/32/298 378/413/160
f 373/414/296 377/415/158 376/32/298 375/32/297
f 374/416/156 378/413/160 376/32/298 377/415/158
f 379/417/100 382/418/104 383/419/103 385/133/102
f 380/420/101 384/421/105 383/419/103 382/418/104
f 381/422/99 385/133/102 383/419/103 384/421/105
f 386/423/164 389/424/168 390/425/166 392/426/167
f 387/427/162 391/428/165 390/425/166 389/424/168
f 388/429/163 392/426/167 390/425/166 391/428/165
f 393/430/2 396/431/6 397/432/5 399/433/4
f 394/434/3 398/435/7 397/432/5 396/431/6
f 395/436/1 399/433/4 397/432/5 398/435/7
f 400/437/114 403/438/118 404/58/299 406/439/116
f 401/440/115 405/441/119 404/58/299 403/438/118
f 402/442/113 406/439/116 404/58/299 405/441/119
f 407/443/17 410/147/21 411/444/19 413/445/20
f 408/446/225 412/447/227 411/444/19 410/147/21
f 409/448/226 413/445/20 411/444/19 412/447/227
f 414/449/121 417/450/125 418/451/124 420/72/123
f 415/452/122 419/453/126 418/451/124 417/450/125
f 416/454/120 420/72/123 418/451/124 419/453/126
f 421/455/228 424/153/231 425/456/232 427/457/234
f 422/156/229 426/458/233 425/456/232 424/153/231
f 423/459/230 427/457/234 425/456/232 426/458/233
f 428/460/128 431/461/132 432/86/300 434/86/130
f 429/462/129 433/463/133 432/86/300 431/461/132
f 430/464/127 434/86/130 432/86/300 433/463/133
f 435/465/235 438/159/49 439/466/47 441/467/237
f 436/468/43 440/469/46 439/466/47 438/159/49
f 437/470/236 441/467/237 439/466/47 440/469/46
f 442/471/135 445/472/139 446/473/138 448/474/137
f 443/475/136 447/476/140 446/473/138 445/472/139
f 444/477/134 448/474/137 446/473/138 447/476/140
f 227/253/2 232/257/17 238/260/20 231/254/6
f 231/248/6 238/264/20 234/263/226 225/245/3
f 171/171/171 176/173/176 182/176/182 175/172/175
f 175/166/175 182/182/182 178/181/178 169/163/169
f 226/249/1 177/177/177 179/180/179 230/250/4
f 230/256/4 179/174/179 176/173/176 227/253/2
f 170/167/170 233/261/225 235/258/21 174/168/174
f 174/168/174 235/258/21 232/257/17 171/171/171
f 233/261/225 239/267/228 245/270/234 237/262/227
f 237/266/227 245/274/234 241/273/230 234/263/226
f 185/193/185 170/167/170 172/170/172 189/194/189
f 189/188/189 172/164/172 169/163/169 183/185/183
f 184/189/184 240/271/229 242/268/231 188/190/188
f 188/190/188 242/268/231 239/267/228 185/193/185
f 240/271/229 246/277/235 252/280/237 244/272/233
f 244/276/233 252/284/237 248/283/236 241/273/230
f 192/203/192 184/189/184 186/192/186 196/204/196
f 196/198/196 186/186/186 183/185/183 190/195/190
f 191/199/191 247/281/43 249/278/49 195/200/195
f 195/200/195 249/278/49 246/277/235 192/203/192
f 247/281/43 253/287/57 259/290/63 251/282/46
f 251/286/46 259/294/63 255/293/59 248/283/236
f 199/213/199 191/199/191 193/202/193 203/214/203
f 203/208/203 193/196/193 190/195/190 197/205/197
f 198/209/198 254/291/58 256/288/60 202/210/202
f 202/210/202 256/288/60 253/287/57 199/213/199
f 254/291/58 260/297/71 266/300/77 258/292/62
f 258/296/62 266/304/77 262/303/73 255/293/59
f 206/223/206 198/209/198 200/212/200 210/224/210
f 210/218/210 200/206/200 197/205/197 204/215/204
f 205/219/205 261/301/72 263/298/74 209/220/209
f 209/220/209 263/298/74 260/297/71 206/223/206
f 261/301/72 267/307/85 273/310/91 265/302/76
f 265/306/76 273/314/91 269/313/87 262/303/73
f 213/233/213 205/219/205 207/222/207 217/234/217
f 217/228/217 207/216/207 204/215/204 211/225/211
f 212/229/212 268/311/86 270/308/88 216/230/216
f 216/230/216 270/308/88 267/307/85 213/233/213
f 268/311/86 274/317/99 280/320/105 272/312/90
f 272/316/90 280/324/105 276/323/101 269/313/87
f 220/243/220 212/229/212 214/232/214 224/244/224
f 224/238/224 214/226/214 211/225/211 218/235/218
f 219/239/219 275/321/100 277/318/102 223/240/223
f 223/240/223 277/318/102 274/317/99 220/243/220
f 275/321/100 226/249/1 228/252/7 279/322/104
f 279/326/104 228/246/7 225/245/3 276/323/101
f 177/177/177 219/239/219 221/242/221 181/178/181
f 181/184/181 221/236/221 218/235/218 178/181/178
f 283/333/240 288/334/245 294/337/251 287/330/244
f 287/330/244 294/337/251 290/340/247 281/327/238
f 288/334/245 295/341/252 301/344/258 291/335/248
f 291/335/248 301/344/258 297/347/254 289/338/246
f 295/341/252 302/348/259 308/351/265 298/342/255
f 298/342/255 308/351/265 304/354/261 296/345/253
f 302/348/259 309/355/266 315/358/272 305/349/262
f 305/349/262 315/358/272 311/361/268 303/352/260
f 309/355/266 316/362/273 322/365/279 312/356/269
f 312/356/269 322/365/279 318/368/275 310/359/267
f 316/362/273 323/369/280 329/372/286 319/363/276
f 319/363/276 329/372/286 325/375/282 317/366/274
f 323/369/280 330/376/287 336/379/293 326/370/283
f 326/370/283 336/379/293 332/382/289 324/373/281
f 330/376/287 283/333/240 286/332/243 333/377/290
f 333/377/290 286/332/243 282/331/239 331/380/288
f 141/138/141 393/430/2 399/433/4 144/139/144
f 144/139/144 399/433/4 395/436/1 142/142/142
f 386/423/164 43/43/43 49/46/49 389/424/168
f 389/424/168 49/46/49 45/49/45 387/427/162
f 134/132/134 379/417/100 385/133/102 137/133/137
f 137/133/137 385/133/102 381/422/99 135/135/135
f 372/412/295 29/29/29 35/32/35 375/32/297
f 375/32/297 35/32/35 31/35/31 373/414/296
f 339/389/71 121/122/121 123/120/123 343/386/74
f 343/386/74 123/120/123 120/119/120 337/383/72
f 127/125/127 365/407/86 371/126/88 130/126/130
f 130/126/130 371/126/88 367/129/85 128/129/128
f 344/390/150 15/15/15 21/18/21 347/391/154
f 347/391/154 21/18/21 17/21/17 345/393/148
f 1/1/1 351/396/142 357/398/144 4/2/4
f 4/2/4 357/398/144 353/5/141 2/5/2
f 24/28/24 9/12/9 11/9/11 28/25/28
f 28/25/28 11/9/11 8/8/8 22/22/22
f 38/42/38 24/28/24 27/27/27 42/39/42
f 42/39/42 27/27/27 23/26/23 36/36/36
f 52/56/52 38/42/38 41/41/41 56/53/56
f 56/53/56 41/41/41 37/40/37 50/50/50
f 66/70/66 52/56/52 55/55/55 70/67/70
f 70/67/70 55/55/55 51/54/51 64/64/64
f 80/84/80 66/70/66 69/69/69 84/81/84
f 84/81/84 69/69/69 65/68/65 78/78/78
f 94/98/94 80/84/80 83/83/83 98/95/98
f 98/95/98 83/83/83 79/82/79 92/92/92
f 108/112/108 94/98/94 97/97/97 112/109/112
f 112/109/112 97/97/97 93/96/93 106/106/106
f 9/12/9 108/112/108 111/111/111 13/13/13
f 13/13/13 111/111/111 107/110/107 10/14/10
f 281/327/238 8/8/8 14/11/14 284/328/241
f 284/328/241 14/11/14 10/14/10 282/331/239
f 106/106/106 332/382/289 335/381/292 109/107/109
f 109/107/109 335/381/292 331/380/288 107/110/107
f 92/92/92 325/375/282 328/374/285 95/93/95
f 95/93/95 328/374/285 324/373/281 93/96/93
f 78/78/78 318/368/275 321/367/278 81/79/81
f 81/79/81 321/367/278 317/366/274 79/82/79
f 64/64/64 311/361/268 314/360/271 67/65/67
f 67/65/67 314/360/271 310/359/267 65/68/65
f 50/50/50 304/354/261 307/353/264 53/51/53
f 53/51/53 307/353/264 303/352/260 51/54/51
f 36/36/36 297/347/254 300/346/257 39/37/39
f 39/37/39 300/346/257 296/345/253 37/40/37
f 22/22/22 290/340/247 293/339/250 25/23/25
f 25/23/25 293/339/250 289/338/246 23/26/23
f 115/118/115 122/124/122 125/123/125 119/115/119
f 119/115/119 125/123/125 121/122/121 113/113/113
f 122/124/122 129/131/129 132/130/132 126/121/126
f 126/121/126 132/130/132 128/129/128 120/119/120
f 129/131/129 136/137/136 139/136/139 133/128/133
f 133/128/133 139/136/139 135/135/135 127/125/127
f 136/137/136 143/144/143 146/143/146 140/134/140
f 140/134/140 146/143/146 142/142/142 134/132/134
f 143/144/143 149/148/149 151/146/151 147/141/147
f 147/141/147 151/146/151 148/145/148 141/138/141
f 149/148/149 156/154/156 158/152/158 153/149/153
f 153/149/153 158/152/158 155/151/155 150/150/150
f 156/154/156 163/160/163 165/158/165 160/155/160
f 160/155/160 165/158/165 162/157/162 157/156/157
f 163/160/163 115/118/115 118/117/118 167/161/167
f 167/161/167 118/117/118 114/116/114 164/162/164
f 2/5/2 17/21/17 20/20/20 6/6/6
f 6/6/6 20/20/20 16/19/16 3/7/3
f 15/15/15 31/35/31 34/34/34 18/16/18
f 18/16/18 34/34/34 30/33/30 16/19/16
f 29/29/29 45/49/45 48/48/48 32/30/32
f 32/30/32 48/48/48 44/47/44 30/33/30
f 43/43/43 57/57/57 63/60/63 46/44/46
f 46/44/46 63/60/63 59/63/59 44/47/44
f 58/61/58 71/71/71 77/74/77 62/62/62
f 62/62/62 77/74/77 73/77/73 59/63/59
f 72/75/72 85/85/85 91/88/91 76/76/76
f 76/76/76 91/88/91 87/91/87 73/77/73
f 86/89/86 99/99/99 105/102/105 90/90/90
f 90/90/90 105/102/105 101/105/101 87/91/87
f 100/103/100 1/1/1 7/4/7 104/104/104
f 104/104/104 7/4/7 3/7/3 101/105/101
f 358/401/58 339/389/71 342/388/77 361/402/62
f 361/402/62 342/388/77 338/387/73 359/404/59
f 337/383/72 367/129/85 370/411/91 340/384/76
f 340/384/76 370/411/91 366/410/87 338/387/73
f 365/407/86 381/422/99 384/421/105 368/408/90
f 368/408/90 384/421/105 380/420/101 366/410/87
f 379/417/100 395/436/1 398/435/7 382/418/104
f 382/418/104 398/435/7 394/434/3 380/420/101
f 393/430/2 407/443/17 413/445/20 396/431/6
f 396/431/6 413/445/20 409/448/226 394/434/3
f 408/446/225 421/455/228 427/457/234 412/447/227
f 412/447/227 427/457/234 423/459/230 409/448/226
f 422/156/229 435/465/235 441/467/237 426/458/233
f 426/458/233 441/467/237 437/470/236 423/459/230
f 436/468/43 360/406/57 363/405/63 440/469/46
f 440/469/46 363/405/63 359/404/59 437/470/236
f 352/399/143 346/395/149 349/394/151 356/400/147
f 356/400/147 349/394/151 345/393/148 353/5/141
f 346/395/149 374/416/156 377/415/158 350/392/153
f 350/392/153 377/415/158 373/414/296 344/390/150
f 374/416/156 388/429/163 391/428/165 378/413/160
f 378/413/160 391/428/165 387/427/162 372/412/295
f 388/429/163 401/440/115 403/438/118 392/426/167
f 392/426/167 403/438/118 400/437/114 386/423/164
f 401/440/115 415/452/122 417/450/125 405/441/119
f 405/441/119 417/450/125 414/449/121 402/442/113
f 415/452/122 429/462/129 431/461/132 419/453/126
f 419/453/126 431/461/132 428/460/128 416/454/120
f 429/462/129 443/475/136 445/472/139 433/463/133
f 433/463/133 445/472/139 442/471/135 430/464/127
f 443/475/136 352/399/143 354/397/146 447/476/140
f 447/476/140 354/397/146 351/396/142 444/477/134
f 402/442/113 58/61/58 60/58/60 406/439/116
f 406/439/116 60/58/60 57/57/57 400/437/114
f 150/150/150 408/446/225 410/147/21 154/147/154
f 154/147/154 410/147/21 407/443/17 148/145/148
f 416/454/120 72/75/72 74/72/74 420/72/123
f 420/72/123 74/72/74 71/71/71 414/449/121
f 157/156/157 422/156/229 424/153/231 161/153/161
f 161/153/161 424/153/231 421/455/228 155/151/155
f 430/464/127 86/89/86 88/86/88 434/86/130
f 434/86/130 88/86/88 85/85/85 428/460/128
f 164/162/164 436/468/43 438/159/49 168/159/168
f 168/159/168 438/159/49 435/465/235 162/157/162
f 444/477/134 100/103/100 102/100/102 448/474/137
f 448/474/137 102/100/102 99/99/99 442/471/135
f 113/113/113 358/401/58 364/114/60 116/114/116
f 116/114/116 364/114/60 360/406/57 114/116/114
f 1/1/1 100/103/100 444/477/134 351/396/142
f 101/105/101 3/7/3 283/333/240 330/376/287
f 17/21/17 2/5/2 353/5/141 345/393/148
f 3/7/3 16/19/16 288/334/245 283/333/240
f 22/22/22 8/8/8 281/327/238 290/340/247
f 9/12/9 24/28/24 169/163/169 178/181/178
f 10/14/10 107/110/107 331/380/288 282/331/239
f 108/112/108 9/12/9 178/181/178 218/235/218
f 16/19/16 30/33/30 295/341/252 288/334/245
f 31/35/31 15/15/15 344/390/150 373/414/296
f 24/28/24 38/42/38 183/185/183 169/163/169
f 36/36/36 23/26/23 289/338/246 297/347/254
f 30/33/30 44/47/44 302/348/259 295/341/252
f 45/49/45 29/29/29 372/412/295 387/427/162
f 38/42/38 52/56/52 190/195/190 183/185/183
f 50/50/50 37/40/37 296/345/253 304/354/261
f 44/47/44 59/63/59 309/355/266 302/348/259
f 57/57/57 43/43/43 386/423/164 400/437/114
f 52/56/52 66/70/66 197/205/197 190/195/190
f 64/64/64 51/54/51 303/352/260 311/361/268
f 71/71/71 58/61/58 402/442/113 414/449/121
f 59/63/59 73/77/73 316/362/273 309/355/266
f 66/70/66 80/84/80 204/215/204 197/205/197
f 78/78/78 65/68/65 310/359/267 318/368/275
f 73/77/73 87/91/87 323/369/280 316/362/273
f 85/85/85 72/75/72 416/454/120 428/460/128
f 80/84/80 94/98/94 211/225/211 204/215/204
f 92/92/92 79/82/79 317/366/274 325/375/282
f 87/91/87 101/105/101 330/376/287 323/369/280
f 99/99/99 86/89/86 430/464/127 442/471/135
f 94/98/94 108/112/108 218/235/218 211/225/211
f 106/106/106 93/96/93 324/373/281 332/382/289
f 113/113/113 121/122/121 339/389/71 358/401/58
f 115/118/115 163/160/163 276/323/101 225/245/3
f 122/124/122 115/118/115 225/245/3 234/263/226
f 164/162/164 114/116/114 360/406/57 436/468/43
f 120/119/120 128/129/128 367/129/85 337/383/72
f 129/131/129 122/124/122 234/263/226 241/273/230
f 127/125/127 135/135/135 381/422/99 365/407/86
f 136/137/136 129/131/129 241/273/230 248/283/236
f 134/132/134 142/142/142 395/436/1 379/417/100
f 143/144/143 136/137/136 248/283/236 255/293/59
f 141/138/141 148/145/148 407/443/17 393/430/2
f 149/148/149 143/144/143 255/293/59 262/303/73
f 150/150/150 155/151/155 421/455/228 408/446/225
f 156/154/156 149/148/149 262/303/73 269/313/87
f 157/156/157 162/157/162 435/465/235 422/156/229
f 163/160/163 156/154/156 269/313/87 276/323/101
f 227/253/2 176/173/176 171/171/171 232/257/17
f 233/261/225 170/167/170 185/193/185 239/267/228
f 275/321/100 219/239/219 177/177/177 226/249/1
f 240/271/229 184/189/184 192/203/192 246/277/235
f 247/281/43 191/199/191 199/213/199 253/287/57
f 254/291/58 198/209/198 206/223/206 260/297/71
f 261/301/72 205/219/205 213/233/213 267/307/85
f 268/311/86 212/229/212 220/243/220 274/317/99
f 374/416/156 346/395/149 338/387/73 366/410/87
f 346/395/149 352/399/143 359/404/59 338/387/73
f 352/399/143 443/475/136 437/470/236 359/404/59
f 388/429/163 374/416/156 366/410/87 380/420/101
f 401/440/115 388/429/163 380/420/101 394/434/3
f 415/452/122 401/440/115 394/434/3 409/448/226
f 429/462/129 415/452/122 409/448/226 423/459/230
f 443/475/136 429/462/129 423/459/230 437/470/236
o Cylinder.001
v -0.271091 3.377554 -0.494975
v -0.271091 3.382710 0.482530
v -0.271091 2.695154 1.177376
v -0.271091 1.717649 1.182531
v -0.271091 1.022803 0.494975
v -0.271091 1.017648 -0.482530
v -0.271091 1.705204 -1.177376
v -0.271091 2.682709 -1.182531
v -0.118979 3.382710 0.482530
v -0.118979 3.377554 -0.494975
v -0.118979 2.695154 1.177376
v -0.118979 1.717649 1.182531
v -0.118979 1.022803 0.494975
v -0.118979 1.017648 -0.482530
v -0.118979 1.705204 -1.177376
v -0.118979 2.682709 -1.182531
v -0.271091 2.975545 0.500000
v -0.271091 2.148917 -1.128758
v -0.271091 2.148917 1.000000
v -0.271091 1.802229 -0.946586
v -0.271091 3.263236 -0.500000
v -0.271091 2.732865 -0.509537
v -0.271091 2.414469 0.507122
v -0.271091 2.582879 -0.000000
v -0.271091 1.648917 -0.866025
v -0.271091 1.688896 -0.500000
v -0.271091 1.282892 0.500000
v -0.271091 1.648917 0.419339
v -0.271091 1.760619 -0.000000
v -0.118979 2.975545 0.500000
v -0.118979 2.148917 1.000000
v -0.118979 2.148917 -1.128758
v -0.118979 1.282892 0.500000
v -0.118979 1.648917 0.419339
v -0.118979 2.582879 -0.000000
v -0.118979 2.414469 0.507122
v -0.118979 1.648917 -0.866025
v -0.118979 1.688896 -0.500000
v -0.118979 1.760619 -0.000000
v -0.118979 2.732865 -0.509537
v -0.118979 3.263236 -0.500000
vn -1.0000 -0.0000 -0.0000
vn 1.0000 -0.0000 -0.0000
vn -0.0000 0.7034 -0.7108
vn -0.0000 -0.7108 -0.7034
vn -0.0000 -0.7034 0.7108
vn -0.0000 0.7108 0.7034
vn -0.0000 -0.0053 -1.0000
vn -0.0000 -1.0000 0.0053
vn -0.0000 0.0053 1.0000
vn -0.0000 1.0000 -0.0053
vn -0.0000 -0.0127 -0.9999
vn -0.0000 0.4652 0.8852
vn -0.0000 -0.0180 0.9998
vn -0.0000 0.7230 0.6908
vn -0.0000 -0.8804 -0.4743
vn -0.0000 -0.5922 -0.8058
vn -0.0000 0.9899 -0.1420
vn -0.0000 0.7578 -0.6525
vn -0.0000 -0.7865 0.6176
vn -0.0000 0.9941 -0.1086
vn -0.0000 -0.7275 0.6861
vn -0.0000 -0.2152 -0.9766
vt 0.000000 0.000000
vt 0.250000 0.066987
vt 0.066987 0.250000
vt 0.500000 1.000000
vt 0.673344 0.953553
vt 0.750000 0.933013
vt 0.066987 0.750000
vt 0.250000 0.933013
vt 1.000000 0.500000
vt 0.933013 0.250000
vt 0.500000 0.000000
vt 0.000000 0.500000
vt 0.933013 0.750000
vt 0.750000 0.066987
s 0
usemtl Material.004
f 470/478/301 469/478/301 449/478/301 456/478/301 455/478/301 468/478/301 466/478/301
f 468/478/301 455/478/301 454/478/301 453/478/301 452/478/301 451/478/301 450/478/301 449/478/301 469/478/301 472/478/301 465/478/301 471/478/301 467/478/301 476/478/301 475/478/301 477/478/301 474/478/301 473/478/301
f 481/478/302 461/478/302 462/478/302 463/478/302 464/478/302 458/478/302 489/478/302 488/478/302 480/478/302 485/478/302 486/478/302 487/478/302
f 489/478/302 458/478/302 457/478/302 459/478/302 460/478/302 461/478/302 481/478/302 482/478/302 479/478/302 484/478/302 478/478/302 483/478/302
f 456/478/303 449/478/303 458/478/303 464/478/303
f 454/478/304 455/478/304 463/478/304 462/478/304
f 452/478/305 453/478/305 461/478/305 460/478/305
f 450/478/306 451/478/306 459/478/306 457/478/306
f 455/478/307 456/478/307 464/478/307 463/478/307
f 453/478/308 454/478/308 462/478/308 461/478/308
f 451/478/309 452/478/309 460/478/309 459/478/309
f 449/478/310 450/478/310 457/478/310 458/478/310
f 471/479/311 465/480/311 478/480/311 484/479/311
f 480/481/312 466/481/312 468/482/312 473/483/312 485/483/312
f 489/484/313 469/484/313 470/485/313 488/485/313
f 487/486/314 477/486/314 475/487/314 481/487/314
f 467/488/315 471/479/315 484/479/315 479/488/315
f 472/489/316 469/484/316 489/484/316 483/489/316
f 474/490/317 477/486/317 487/486/317 486/490/317
f 476/491/318 467/488/318 479/488/318 482/491/318
f 478/480/319 465/480/319 472/489/319 483/489/319
f 473/483/320 474/490/320 486/490/320 485/483/320
f 488/485/321 470/485/321 466/481/321 480/481/321
f 475/487/322 476/491/322 482/491/322 481/487/322
